<?xml version="1.0" standalone="no"?>
<!DOCTYPE svg PUBLIC "-//W3C//DTD SVG 1.1//EN" "http://www.w3.org/Graphics/SVG/1.1/DTD/svg11.dtd" >
<svg xmlns="http://www.w3.org/2000/svg">
<metadata>Generated by IcoMoon</metadata>
<defs>
<font id="Asi" horiz-adv-x="1024">
<font-face units-per-em="1024" ascent="960" descent="-64" />
<missing-glyph horiz-adv-x="1024" />
<glyph unicode="&#x20;" horiz-adv-x="512" d="" />
<glyph unicode="&#xe900;" glyph-name="play" d="M334.871 829.531l450.917-300.614c13.316-8.875 24.956-16.631 33.766-23.735 9.097-7.339 18.522-16.525 23.863-29.406 7.377-17.788 7.377-37.781 0-55.569-5.342-12.877-14.767-22.063-23.863-29.402-8.811-7.104-20.45-14.865-33.766-23.74l-450.915-300.608c-16.243-10.833-30.127-20.087-41.746-26.385-11.63-6.302-25.673-12.369-41.447-11.426-21.171 1.263-40.728 11.729-53.523 28.642-9.534 12.604-12.276 27.652-13.483 40.828-1.206 13.158-1.205 29.845-1.204 49.365v601.021c-0.001 19.521-0.001 36.207 1.204 49.367 1.207 13.172 3.949 28.222 13.483 40.825 12.795 16.914 32.352 27.38 53.523 28.645 15.774 0.942 29.818-5.125 41.448-11.427 11.619-6.297 25.502-15.553 41.744-26.382zM254.87 807.686c-3.471-0.308-6.667-2.019-8.849-4.736-0.204-0.511-1.19-3.175-1.864-10.53-0.925-10.099-0.955-24.007-0.955-45.318v-598.217c0-21.312 0.030-35.221 0.955-45.321 0.674-7.351 1.66-10.018 1.864-10.53 2.181-2.718 5.378-4.429 8.849-4.736 0.538 0.115 3.302 0.772 9.795 4.292 8.916 4.83 20.505 12.518 38.237 24.341l448.662 299.11c14.724 9.813 24.051 16.068 30.49 21.261 4.646 3.746 6.003 5.585 6.255 5.961 1.212 3.038 1.212 6.421 0 9.459-0.252 0.375-1.609 2.214-6.255 5.961-6.438 5.193-15.765 11.447-30.49 21.261l-448.662 299.108c-17.732 11.821-29.321 19.511-38.237 24.343-6.493 3.519-9.257 4.176-9.795 4.29z" />
<glyph unicode="&#xe901;" glyph-name="arrow-up-right" d="M396.802 704.009c0 16.495 13.372 29.867 29.865 29.867h341.333c16.495 0 29.867-13.372 29.867-29.867v-341.333c0-16.495-13.372-29.867-29.867-29.867s-29.867 13.372-29.867 29.867v269.229l-461.012-461.015c-11.663-11.661-30.574-11.661-42.238 0-11.663 11.665-11.663 30.575 0 42.24l461.015 461.013h-269.231c-16.493 0-29.865 13.372-29.865 29.867z" />
<glyph unicode="&#xe902;" glyph-name="announcement" d="M736.678 802.519c8.431 3.803 11.793 4.389 12.245 4.509 3.631-0.545 5.568-1.712 7.791-4.675 0.132-0.463 1.169-3.465 1.843-11.927 0.879-11.063 0.9-26.35 0.9-49.152v-415.89c0-22.801-0.021-38.089-0.9-49.152-0.674-8.461-1.711-11.465-1.843-11.925-2.223-2.965-4.16-4.13-7.791-4.676-0.452 0.119-3.814 0.704-12.245 4.51-10.799 4.873-25.182 12.689-46.37 24.239-65.941 35.947-154.709 76.198-233.783 82.082v325.734c79.074 5.884 167.842 46.136 233.783 82.085 21.188 11.55 35.571 19.367 46.37 24.239zM819.191 710.052v32.507c0 21.184 0 38.877-1.088 52.599-1.050 13.189-3.375 28.771-12.454 41.463-12.25 17.126-29.274 27.234-50.172 29.794-15.718 1.926-31.010-3.873-43.366-9.447-13.103-5.913-29.478-14.84-49.293-25.641l-1.097-0.599c-70.916-38.657-157.252-75.531-224.397-75.531h-160c-122.534 0-221.867-99.333-221.867-221.867 0-71.198 33.535-134.558 85.671-175.155 0.14-0.917 0.325-1.835 0.554-2.756l67.465-269.858c1.615-6.468 2.841-11.371 4.358-15.855 14.74-43.516 53.928-74.112 99.72-77.858 4.716-0.384 9.772-0.384 16.438-0.384h2.639c8.308 0 14.56-0.004 20.142 0.538 54.831 5.321 98.225 48.713 103.541 103.543 0.542 5.581 0.542 11.831 0.538 20.143v194.85c63.868-5.948 140.877-39.543 205.197-74.603l1.097-0.602c19.814-10.799 36.19-19.729 49.293-25.638 12.356-5.577 27.648-11.375 43.366-9.451 20.898 2.56 37.922 12.668 50.172 29.794 9.079 12.693 11.405 28.275 12.454 41.463 1.088 13.722 1.088 31.415 1.088 52.599v32.508c84.753 14.217 149.333 87.927 149.333 176.721s-64.58 162.504-149.333 176.723zM819.191 649.033c51.529-13.262 89.6-60.036 89.6-115.703s-38.071-102.438-89.6-115.703v231.407zM396.792 371.196h-119.467c-89.544 0-162.133 72.589-162.133 162.133s72.59 162.134 162.133 162.134h119.467v-324.267zM396.792 311.462v-194.295c0-10.453-0.035-13.551-0.259-15.859-2.561-26.398-23.453-47.292-49.853-49.852-2.308-0.226-5.404-0.26-15.859-0.26-8.338 0-10.764 0.026-12.724 0.183-22.048 1.805-40.916 16.538-48.014 37.491-0.631 1.86-1.242 4.207-3.265 12.297l-55.034 220.134c20.715-6.396 42.726-9.839 65.54-9.839h119.467z" />
<glyph unicode="&#xe903;" glyph-name="home" d="M515.349 832.968c1.071-0.289 3.059-1.121 20.233-14.476l289.378-225.072c20.676-16.084 26.351-20.823 30.306-26.173 4.011-5.424 7.002-11.535 8.819-18.032 1.792-6.408 2.052-13.795 2.052-39.992v-308.689c0-24.388-0.021-40.883-1.062-53.615-1.011-12.382-2.833-18.551-4.983-22.767-5.316-10.436-13.803-18.923-24.239-24.239-4.215-2.15-10.385-3.972-22.767-4.983-12.732-1.041-29.227-1.062-53.615-1.062h-89.6v286.929c0 11.034 0 21.047-0.678 29.393-0.734 8.96-2.398 18.598-7.228 28.075-6.955 13.645-18.048 24.742-31.697 31.697-9.476 4.826-19.11 6.494-28.075 7.223-8.346 0.683-18.355 0.683-29.389 0.683h-121.596c-11.034 0-21.047 0-29.393-0.683-8.962-0.73-18.598-2.398-28.074-7.223-13.648-6.955-24.744-18.052-31.698-31.697-4.828-9.476-6.493-19.115-7.225-28.075-0.682-8.346-0.681-18.359-0.681-29.393v-286.929h-89.6c-24.388 0-40.883 0.021-53.615 1.062-12.383 1.011-18.552 2.833-22.767 4.983-10.437 5.316-18.922 13.803-24.24 24.239-2.147 4.215-3.97 10.385-4.982 22.767-1.040 12.732-1.064 29.227-1.064 53.615v308.689c0 26.197 0.259 33.584 2.053 39.992 1.818 6.497 4.807 12.608 8.819 18.032 3.957 5.35 9.629 10.090 30.307 26.173l289.38 225.072c17.169 13.354 19.162 14.186 20.228 14.476 2.193 0.593 4.501 0.593 6.69 0zM760.695 34.133c22.852 0 41.801-0.004 57.254 1.259 16.077 1.314 30.985 4.143 45.022 11.294 21.675 11.046 39.3 28.672 50.342 50.347 7.155 14.037 9.984 28.945 11.294 45.022 1.263 15.45 1.263 34.398 1.263 57.254v309.914c0 1.19 0 2.359 0 3.52 0.013 21.075 0.026 37.255-4.262 52.573-3.776 13.494-9.984 26.185-18.317 37.451-9.459 12.789-22.238 22.714-38.882 35.644-0.913 0.71-1.839 1.43-2.778 2.16l-289.378 225.072c-0.99 0.768-1.975 1.541-2.965 2.316-11.866 9.277-24.038 18.798-38.327 22.667-12.416 3.361-25.498 3.361-37.914 0-14.289-3.869-26.462-13.39-38.323-22.666-0.99-0.775-1.98-1.548-2.965-2.316l-289.381-225.072c-0.938-0.73-1.865-1.449-2.779-2.16-16.643-12.929-29.421-22.855-38.88-35.644-8.332-11.266-14.54-23.957-18.317-37.451-4.288-15.319-4.278-31.498-4.265-52.573 0.001-1.156 0.001-2.33 0.001-3.52v-309.914c0-22.857 0-41.805 1.262-57.254 1.313-16.077 4.141-30.985 11.294-45.022 11.044-21.675 28.668-39.3 50.344-50.347 14.039-7.151 28.944-9.98 45.021-11.294 15.453-1.263 34.401-1.259 57.256-1.259h497.38zM610.138 93.867h-196.266v285.867c0 12.437 0.023 19.972 0.482 25.591 0.333 4.070 0.803 5.534 0.917 5.824 1.228 2.406 3.184 4.361 5.59 5.589-0.349-0.179 0.552 0.482 5.819 0.913 5.619 0.457 13.15 0.482 25.591 0.482h119.467c12.442 0 19.977-0.026 25.591-0.482 5.269-0.431 6.17-1.092 5.82-0.913 2.406-1.229 4.365-3.183 5.589-5.589 0.115-0.294 0.585-1.758 0.917-5.824 0.461-5.619 0.482-13.154 0.482-25.591v-285.867z" />
<glyph unicode="&#xe904;" glyph-name="globe" d="M116.309 477.875h196.402c8.34 130.772 54.13 256.094 131.448 361.156-177.251-30.537-314.27-178.659-327.851-361.156zM512 829.039c-81.685-99.766-130.425-222.484-139.422-351.164h278.848c-8.998 128.679-57.737 251.398-139.426 351.164zM651.426 418.142h-278.848c8.997-128.678 57.737-251.396 139.422-351.164 81.69 99.767 130.428 222.485 139.426 351.164zM312.712 418.142h-196.402c13.58-182.498 150.6-330.62 327.851-361.156-77.318 105.062-123.109 230.383-131.448 361.156zM579.844 56.986c177.25 30.537 314.27 178.658 327.851 361.156h-196.403c-8.337-130.773-54.131-256.094-131.447-361.156zM907.695 477.875c-13.581 182.498-150.601 330.619-327.851 361.156 77.316-105.062 123.11-230.384 131.447-361.156h196.403zM55.469 448.009c0 252.136 204.397 456.533 456.531 456.533 252.139 0 456.538-204.397 456.538-456.533 0-252.139-204.399-456.533-456.538-456.533-252.134 0-456.531 204.395-456.531 456.533z" />
<glyph unicode="&#xe905;" glyph-name="share" d="M768 844.809c54.199 0 98.133-43.936 98.133-98.133s-43.934-98.133-98.133-98.133c-35.409 0-66.436 18.755-83.695 46.872-0.311 0.636-0.653 1.266-1.015 1.888-0.367 0.627-0.751 1.236-1.152 1.827-7.817 14.085-12.271 30.296-12.271 47.546 0 54.197 43.938 98.133 98.133 98.133zM649.131 642.787c28.941-33.083 71.467-53.979 118.869-53.979 87.189 0 157.871 70.679 157.871 157.867s-70.682 157.867-157.871 157.867c-87.185 0-157.867-70.679-157.867-157.867 0-18.334 3.127-35.937 8.875-52.307l-244.137-142.472c-28.937 33.083-71.463 53.979-118.869 53.979-87.187 0-157.867-70.679-157.867-157.867s70.679-157.867 157.867-157.867c47.412 0 89.943 20.902 118.881 53.99l244.189-142.293c-5.786-16.422-8.939-34.095-8.939-52.497 0-87.189 70.682-157.867 157.867-157.867 87.189 0 157.871 70.677 157.871 157.867 0 87.185-70.682 157.867-157.871 157.867-47.33 0-89.801-20.834-118.733-53.828l-244.265 142.336c5.743 16.367 8.866 33.967 8.866 52.292 0 18.334-3.125 35.938-8.872 52.305l244.134 142.474zM339.699 499.268c0.313-0.636 0.651-1.263 1.014-1.886 0.366-0.627 0.752-1.237 1.155-1.826 7.816-14.089 12.267-30.298 12.267-47.548s-4.451-33.459-12.267-47.548c-0.407-0.593-0.796-1.207-1.165-1.843-0.359-0.614-0.694-1.242-1.005-1.869-17.258-28.117-48.287-46.874-83.697-46.874-54.198 0-98.133 43.934-98.133 98.133s43.936 98.133 98.133 98.133c35.41 0 66.439-18.756 83.697-46.874zM681.033 194.842c0.986 1.203 1.886 2.505 2.697 3.891 0.781 1.34 1.442 2.714 1.997 4.113 17.506 26.867 47.817 44.629 82.274 44.629 54.199 0 98.133-43.938 98.133-98.133 0-54.199-43.934-98.133-98.133-98.133-54.195 0-98.133 43.934-98.133 98.133 0 16.422 4.036 31.898 11.166 45.5z" />
<glyph unicode="&#xe906;" glyph-name="bar-chart" d="M512 819.209c-16.495 0-29.867-13.372-29.867-29.867v-682.667c0-16.495 13.372-29.867 29.867-29.867s29.867 13.372 29.867 29.867v682.667c0 16.495-13.372 29.867-29.867 29.867zM768 563.209c-16.495 0-29.867-13.372-29.867-29.867v-426.667c0-16.495 13.372-29.867 29.867-29.867s29.867 13.372 29.867 29.867v426.667c0 16.495-13.372 29.867-29.867 29.867zM256.002 392.542c-16.495 0-29.867-13.372-29.867-29.867v-256c0-16.495 13.372-29.867 29.867-29.867s29.867 13.372 29.867 29.867v256c0 16.495-13.372 29.867-29.867 29.867z" />
<glyph unicode="&#xe907;" glyph-name="image" d="M331.514 861.875c-34.751 0-62.65 0-85.215-1.843-23.191-1.895-43.365-5.885-61.968-15.363-29.705-15.135-53.855-39.286-68.99-68.99-9.478-18.603-13.468-38.776-15.363-61.968-1.844-22.564-1.844-50.463-1.843-85.214v-360.976c0-34.752 0-62.647 1.843-85.214 1.895-23.189 5.885-43.366 15.363-61.969 15.136-29.705 39.286-53.854 68.99-68.988 18.603-9.481 38.777-13.47 61.968-15.364 4.972-0.405 10.203-0.725 15.709-0.969 0.436-0.043 0.859-0.081 1.268-0.119 8.547-0.759 19.369-0.755 31.213-0.755h34.956c0.687 0 1.377 0 2.070 0h360.972c34.752 0 62.652 0 85.214 1.843 23.194 1.894 43.366 5.884 61.969 15.364 29.705 15.134 53.854 39.283 68.992 68.988 9.476 18.603 13.466 38.78 15.364 61.969 1.843 22.566 1.843 50.466 1.843 85.218v360.97c0 34.752 0 62.651-1.843 85.216-1.899 23.191-5.888 43.365-15.364 61.968-15.138 29.705-39.287 53.855-68.992 68.99-18.603 9.478-38.775 13.469-61.969 15.363-22.562 1.844-50.462 1.843-85.214 1.843h-360.974zM678.72 485.18c0 0 0 0 0 0 2.569 0.832 5.329 0.832 7.898 0 0.286-0.128 1.655-0.832 4.766-3.473 4.297-3.648 9.643-8.96 18.436-17.754l156.314-156.318v-38.827c0-36.335-0.021-61.794-1.643-81.638-1.591-19.499-4.578-30.933-9.050-39.714-9.408-18.466-24.422-33.476-42.889-42.884-8.777-4.471-20.215-7.458-39.714-9.054-19.844-1.621-45.299-1.643-81.638-1.643h-358.398zM285.678 94.093c13.415-0.213 28.901-0.218 47.124-0.218zM866.133 392.111l-114.829 114.833c-7.799 7.799-14.878 14.882-21.261 20.301-6.857 5.815-14.848 11.454-24.96 14.74-14.571 4.733-30.259 4.733-44.83 0-10.112-3.286-18.103-8.925-24.96-14.74-6.383-5.423-13.461-12.501-21.261-20.305l-364.431-364.429c-8.376-8.371-16.029-16.026-21.537-22.605-3.378-4.032-8.103-10.052-11.205-17.758-1.928 0.755-3.718 1.562-5.41 2.423-18.465 9.408-33.478 24.418-42.886 42.884-4.473 8.781-7.458 20.215-9.051 39.714-1.622 19.844-1.645 45.303-1.645 81.638v358.4c0 36.336 0.023 61.792 1.645 81.638 1.593 19.497 4.578 30.935 9.051 39.713 9.408 18.465 24.421 33.478 42.886 42.886 8.778 4.473 20.216 7.458 39.714 9.051 19.846 1.621 45.302 1.645 81.638 1.645h358.398c36.339 0 61.794-0.023 81.638-1.645 19.499-1.593 30.938-4.579 39.714-9.051 18.466-9.408 33.481-24.421 42.889-42.886 4.471-8.778 7.458-20.216 9.050-39.713 1.621-19.846 1.643-45.302 1.643-81.638v-235.097zM362.669 652.809c-30.633 0-55.467-24.834-55.467-55.467s24.833-55.467 55.467-55.467c30.633 0 55.467 24.833 55.467 55.467s-24.833 55.467-55.467 55.467zM247.469 597.342c0 63.623 51.577 115.2 115.2 115.2s115.198-51.577 115.198-115.2c0-63.623-51.575-115.2-115.198-115.2s-115.2 51.577-115.2 115.2z" />
<glyph unicode="&#xe908;" glyph-name="calendar-02" d="M341.335 904.542c16.495 0 29.867-13.372 29.867-29.867v-55.467h281.598v55.467c0 16.495 13.372 29.867 29.867 29.867s29.867-13.372 29.867-29.867v-55.482c25.655-0.059 47.121-0.354 65.169-1.828 23.194-1.895 43.366-5.885 61.969-15.363 29.705-15.135 53.854-39.286 68.992-68.99 9.476-18.603 13.466-38.776 15.364-61.968 1.843-22.565 1.843-50.464 1.843-85.216v-159.153c0-16.495-13.376-29.867-29.871-29.867-16.491 0-29.867 13.372-29.867 29.867v76.8h-708.265v-277.333c0-36.335 0.023-61.794 1.645-81.638 1.593-19.499 4.578-30.933 9.051-39.714 9.408-18.466 24.421-33.476 42.886-42.884 8.778-4.471 20.216-7.458 39.714-9.054 19.846-1.621 45.302-1.643 81.638-1.643h179.198c16.495 0 29.867-13.372 29.867-29.867s-13.372-29.867-29.867-29.867h-180.484c-34.752 0-62.651 0-85.216 1.843-23.191 1.894-43.365 5.884-61.968 15.364-29.704 15.134-53.855 39.283-68.99 68.988-9.479 18.603-13.469 38.78-15.363 61.969-1.844 22.566-1.844 50.462-1.843 85.214v360.976c0 34.751 0 62.65 1.843 85.214 1.895 23.191 5.885 43.366 15.363 61.968 15.136 29.705 39.286 53.855 68.99 68.99 18.603 9.478 38.777 13.469 61.968 15.363 18.051 1.475 39.514 1.769 65.169 1.828v55.482c0 16.495 13.372 29.867 29.867 29.867zM311.469 759.458c-25.362-0.062-44.592-0.343-60.305-1.627-19.497-1.593-30.935-4.579-39.714-9.051-18.465-9.408-33.478-24.421-42.886-42.886-4.473-8.778-7.458-20.216-9.051-39.713-1.622-19.846-1.645-45.302-1.645-81.638v-21.333h708.265v21.333c0 36.336-0.021 61.792-1.643 81.638-1.591 19.497-4.578 30.935-9.050 39.713-9.408 18.465-24.422 33.478-42.889 42.886-8.777 4.473-20.215 7.458-39.714 9.051-15.71 1.284-34.94 1.565-60.305 1.627v-55.449c0-16.495-13.372-29.867-29.867-29.867s-29.867 13.372-29.867 29.867v55.467h-281.598v-55.467c0-16.495-13.372-29.867-29.867-29.867s-29.867 13.372-29.867 29.867v55.449zM917.12 277.129c-11.661 11.661-30.575 11.661-42.236 0l-170.884-170.884-64.213 64.218c-11.661 11.661-30.575 11.661-42.236 0-11.665-11.665-11.665-30.575 0-42.24l85.333-85.333c11.661-11.661 30.575-11.661 42.236 0l192 192c11.665 11.665 11.665 30.575 0 42.24z" />
<glyph unicode="&#xe909;" glyph-name="file-check" d="M374.181 904.542c-34.751 0-62.65 0-85.215-1.843-23.191-1.895-43.365-5.885-61.968-15.363-29.705-15.135-53.855-39.286-68.99-68.99-9.478-18.603-13.468-38.776-15.363-61.968-1.844-22.565-1.844-50.463-1.843-85.214v-446.31c0-34.752 0-62.647 1.843-85.214 1.895-23.189 5.885-43.366 15.363-61.969 15.135-29.705 39.286-53.854 68.99-68.988 18.603-9.481 38.777-13.47 61.968-15.364 22.565-1.843 50.464-1.843 85.216-1.843h137.817c16.495 0 29.867 13.372 29.867 29.867s-13.372 29.867-29.867 29.867h-136.531c-36.336 0-61.792 0.021-81.638 1.643-19.497 1.596-30.935 4.582-39.714 9.054-18.465 9.408-33.478 24.418-42.886 42.884-4.473 8.781-7.458 20.215-9.051 39.714-1.622 19.844-1.645 45.303-1.645 81.638v443.733c0 36.336 0.023 61.792 1.645 81.638 1.593 19.497 4.578 30.935 9.051 39.713 9.408 18.465 24.421 33.478 42.886 42.886 8.778 4.473 20.216 7.458 39.714 9.051 19.846 1.621 45.302 1.645 81.638 1.645h273.065c36.339 0 61.794-0.023 81.638-1.645 19.499-1.593 30.938-4.579 39.714-9.051 18.466-9.408 33.481-24.421 42.889-42.886 4.471-8.778 7.458-20.216 9.050-39.713 1.621-19.846 1.643-45.302 1.643-81.638v-243.2c0-16.495 13.376-29.867 29.867-29.867 16.495 0 29.871 13.372 29.871 29.867v244.486c0 34.752 0 62.651-1.843 85.216-1.899 23.191-5.888 43.365-15.364 61.968-15.138 29.705-39.287 53.855-68.992 68.99-18.603 9.478-38.775 13.469-61.969 15.363-22.562 1.844-50.462 1.843-85.214 1.843h-275.641zM311.469 661.342c0-16.495 13.372-29.867 29.867-29.867h341.331c16.495 0 29.867 13.372 29.867 29.867s-13.372 29.866-29.867 29.866h-341.331c-16.495 0-29.867-13.372-29.867-29.866zM311.469 490.675c0-16.495 13.372-29.867 29.867-29.867h255.998c16.495 0 29.867 13.372 29.867 29.867s-13.372 29.867-29.867 29.867h-255.998c-16.495 0-29.867-13.372-29.867-29.867zM311.469 320.009c0-16.495 13.372-29.867 29.867-29.867h85.331c16.495 0 29.867 13.372 29.867 29.867s-13.372 29.867-29.867 29.867h-85.331c-16.495 0-29.867-13.372-29.867-29.867zM917.12 277.129c-11.661 11.661-30.575 11.661-42.236 0l-170.884-170.884-64.213 64.218c-11.661 11.661-30.575 11.661-42.236 0-11.665-11.665-11.665-30.575 0-42.24l85.333-85.333c11.661-11.661 30.575-11.661 42.236 0l192 192c11.665 11.665 11.665 30.575 0 42.24z" />
<glyph unicode="&#xe90a;" glyph-name="menu-dots-02" d="M200.535 447.991c0-7.070 5.731-12.8 12.8-12.8s12.8 5.73 12.8 12.8c0 7.070-5.731 12.8-12.8 12.8s-12.8-5.73-12.8-12.8zM213.335 375.458c-40.059 0-72.533 32.474-72.533 72.533s32.474 72.533 72.533 72.533c40.059 0 72.533-32.474 72.533-72.533s-32.474-72.533-72.533-72.533zM499.2 447.991c0-7.070 5.734-12.8 12.8-12.8 7.070 0 12.8 5.73 12.8 12.8s-5.73 12.8-12.8 12.8c-7.066 0-12.8-5.73-12.8-12.8zM512 375.458c-40.055 0-72.533 32.474-72.533 72.533s32.478 72.533 72.533 72.533c40.060 0 72.533-32.474 72.533-72.533s-32.474-72.533-72.533-72.533zM797.867 447.991c0-7.070 5.734-12.8 12.8-12.8 7.070 0 12.8 5.73 12.8 12.8s-5.73 12.8-12.8 12.8c-7.066 0-12.8-5.73-12.8-12.8zM810.667 375.458c-40.055 0-72.533 32.474-72.533 72.533s32.478 72.533 72.533 72.533c40.060 0 72.538-32.474 72.538-72.533s-32.478-72.533-72.538-72.533z" />
<glyph unicode="&#xe90b;" glyph-name="check-03" d="M763.55 725.127c-11.665 11.664-30.575 11.664-42.24 0l-448.214-448.216-192.214 192.218c-11.664 11.661-30.574 11.661-42.238 0-11.664-11.665-11.664-30.575 0-42.24l213.333-213.333c11.664-11.661 30.574-11.661 42.238 0l469.335 469.334c11.661 11.664 11.661 30.574 0 42.238zM1002.466 725.127c-11.665 11.664-30.575 11.664-42.24 0l-448.213-448.216-25.796 25.801c-11.665 11.661-30.575 11.661-42.24 0-11.665-11.665-11.665-30.575 0-42.24l46.916-46.916c11.665-11.661 30.575-11.661 42.24 0l469.333 469.334c11.661 11.664 11.661 30.574 0 42.238z" />
<glyph unicode="&#xe90c;" glyph-name="x-close" d="M234.883 725.127c11.664 11.664 30.575 11.664 42.238 0l234.879-234.883 234.884 234.883c11.661 11.664 30.575 11.664 42.236 0 11.665-11.664 11.665-30.574 0-42.238l-234.88-234.881 234.88-234.88c11.665-11.665 11.665-30.575 0-42.24-11.661-11.661-30.575-11.661-42.236 0l-234.884 234.88-234.879-234.88c-11.663-11.661-30.574-11.661-42.238 0-11.663 11.665-11.663 30.575 0 42.24l234.881 234.88-234.881 234.881c-11.663 11.664-11.663 30.574 0 42.238z" />
<glyph unicode="&#xe90d;" glyph-name="notification-off" d="M351.576 855.291c-13.653-9.256-17.218-27.828-7.962-41.481s27.827-17.218 41.481-7.962c37.182 25.208 81.332 38.96 126.896 38.96 59.977 0 117.491-23.825 159.902-66.233 42.406-42.408 66.231-99.926 66.231-159.9 0-92.211 11.861-165.5 28.89-223.172 4.668-15.821 21.278-24.858 37.099-20.19 15.821 4.672 24.858 21.282 20.19 37.103-15.249 51.657-26.445 119.202-26.445 206.259 0 75.817-30.118 148.528-83.729 202.138s-126.319 83.729-202.138 83.729c-57.604 0-113.414-17.386-160.415-49.251zM106.873 853.127c11.664 11.664 30.574 11.664 42.238 0l137.779-137.779c0.855-0.762 1.662-1.57 2.419-2.419l457.107-457.109c0.021-0.017 0.038-0.038 0.060-0.055l170.637-170.637c11.661-11.665 11.661-30.575 0-42.24-11.665-11.661-30.575-11.661-42.24 0l-161.916 161.92h-483.809c-24.873 0-44.471 0-58.522 0.546-7.060 0.277-13.651 0.717-19.249 1.549-3.92 0.58-13.456 2.035-21.475 7.983-4.233 3.14-10.314 8.107-14.703 16.009s-5.393 15.689-5.823 20.941c-0.519 6.34 0.862 11.686 1.688 14.46 0.969 3.255 2.249 6.37 3.491 9.105 2.486 5.474 5.947 11.853 9.962 18.816 8.016 13.909 19.976 33.131 35.342 57.822l0.363 0.585c34.065 54.746 65.905 139.507 65.905 266.052 0 22.193 2.581 44.123 7.577 65.385l-126.829 126.829c-11.664 11.664-11.664 30.574 0 42.238zM286.224 631.538c-0.243-4.272-0.366-8.561-0.366-12.863 0-137.148-34.679-232.934-74.923-297.609-15.585-25.050-26.909-43.255-34.362-56.145 12.533-0.375 29.89-0.38 53.342-0.38h423.306l-366.998 366.996zM158.512 266.308c-0.016-0.009 0.181-0.068 0.637-0.154-0.393 0.115-0.621 0.158-0.637 0.154zM376.711 83.772c-10.915-12.365-9.738-31.241 2.629-42.155 35.332-31.185 81.815-50.142 132.652-50.142s97.318 18.957 132.651 50.142c12.369 10.914 13.547 29.79 2.628 42.155-10.914 12.369-29.786 13.542-42.155 2.628-24.836-21.922-57.395-35.191-93.124-35.191s-68.284 13.269-93.125 35.191c-12.367 10.914-31.241 9.741-42.156-2.628z" />
<glyph unicode="&#xe90e;" glyph-name="clock" d="M511.991 844.809c-219.146 0-396.8-177.654-396.8-396.8 0-219.149 177.654-396.8 396.8-396.8 219.149 0 396.8 177.651 396.8 396.8 0 219.146-177.651 396.8-396.8 396.8zM55.458 448.009c0 252.136 204.397 456.533 456.533 456.533 252.139 0 456.533-204.397 456.533-456.533 0-252.139-204.395-456.533-456.533-456.533-252.136 0-456.533 204.395-456.533 456.533zM511.991 733.875c-16.495 0-29.867-13.372-29.867-29.867v-256c0-11.311 6.391-21.653 16.512-26.714l170.667-85.333c14.75-7.377 32.691-1.395 40.068 13.355 7.377 14.754 1.395 32.695-13.355 40.073l-154.159 77.077v237.542c0 16.495-13.372 29.867-29.867 29.867z" />
<glyph unicode="&#xe90f;" glyph-name="mail" d="M485.675 906.368c17.314 4.064 35.332 4.064 52.651 0 19.699-4.624 37.367-16.128 60.429-31.143 1.293-0.842 2.603-1.694 3.93-2.557l265.306-172.449c0.657-0.425 1.306-0.848 1.954-1.269l53.935-35.059c0.734-0.477 1.472-0.954 2.21-1.432 9.097-5.887 18.475-11.956 25.57-20.444 6.187-7.404 10.833-15.968 13.67-25.191 3.251-10.574 3.23-21.744 3.209-32.579-0.004-0.88-0.004-1.757-0.004-2.633v-314.105c0-34.752 0-62.652-1.843-85.218-1.894-23.189-5.888-43.362-15.364-61.965-15.134-29.705-39.287-53.858-68.992-68.992-18.603-9.481-38.775-13.47-61.965-15.364-22.566-1.843-50.466-1.843-85.218-1.843h-446.305c-34.752 0-62.651 0-85.216 1.843-23.191 1.894-43.365 5.884-61.967 15.364-29.705 15.134-53.855 39.287-68.99 68.992-9.478 18.603-13.469 38.775-15.363 61.965-1.844 22.566-1.844 50.466-1.843 85.214v314.109c0 0.875-0.002 1.753-0.003 2.633-0.022 10.835-0.044 22.005 3.207 32.579 2.836 9.222 7.484 17.787 13.671 25.191 7.093 8.489 16.471 14.558 25.568 20.444 0.739 0.478 1.476 0.955 2.21 1.432l53.714 34.914c0.72 0.468 1.445 0.939 2.175 1.414l265.306 172.449c1.328 0.863 2.638 1.716 3.93 2.557 23.060 15.016 40.728 26.519 60.432 31.143zM453.867 822.585l-264.2-171.73c-15.158-9.853-24.795-16.152-31.445-21.391-4.803-3.784-6.217-5.655-6.479-6.036-1.229-3.060-1.229-6.478 0-9.538 0.262-0.38 1.676-2.252 6.479-6.036 6.65-5.239 16.288-11.539 31.445-21.391l264.2-171.73c28.847-18.752 37.244-23.701 45.457-25.63 8.337-1.958 17.011-1.958 25.348 0 8.213 1.929 16.61 6.878 45.457 25.63l264.201 171.73c15.159 9.853 24.798 16.152 31.445 21.392 4.804 3.785 6.221 5.657 6.481 6.036 1.229 3.060 1.229 6.477 0 9.537-0.26 0.38-1.677 2.251-6.481 6.036-6.583 5.187-16.094 11.413-30.989 21.097-0.154 0.098-0.303 0.196-0.457 0.295l-264.201 171.729c-28.847 18.751-37.244 23.703-45.457 25.631-8.337 1.957-17.011 1.957-25.348 0-8.213-1.928-16.61-6.88-45.457-25.631zM908.8 565.985c-2.005-1.786-4.041-3.463-6.059-5.051-9.050-7.132-21.022-14.913-34.748-23.834l-195.055-126.783 234.927-212.194c0.917 18.125 0.934 40.695 0.934 70.669v297.194zM889.796 133.952l-268.681 242.679-18.432-11.981c-1.327-0.862-2.637-1.715-3.93-2.556-23.061-15.019-40.73-26.522-60.429-31.147-17.318-4.062-35.337-4.062-52.651 0-19.703 4.625-37.372 16.128-60.432 31.147-1.292 0.841-2.602 1.694-3.93 2.556l-18.431 11.981-268.679-242.679c9.028-12.309 20.849-22.4 34.578-29.397 8.778-4.471 20.216-7.458 39.714-9.050 19.846-1.621 45.302-1.647 81.638-1.647h443.735c36.335 0 61.79 0.026 81.638 1.647 19.494 1.591 30.933 4.578 39.71 9.050 13.73 6.997 25.553 17.088 34.581 29.397zM116.131 198.123l234.928 212.194-195.052 126.782c-13.727 8.922-25.7 16.703-34.752 23.835-2.016 1.588-4.050 3.266-6.056 5.051v-297.194c0-29.973 0.016-52.544 0.932-70.669z" />
<glyph unicode="&#xe910;" glyph-name="phone-plus" d="M316.48 250.266c98.115-89.715 215.996-145.745 341.158-169.391 15.407-2.914 20.437-3.802 30.379-3.767 22.020 0.077 55.215 11.934 73.553 26.274 8.026 6.276 13.918 12.557 30.938 31.172l6.848 7.488c17.058 18.658 21.978 24.265 24.973 28.988 14.4 22.733 14.592 50.624 0.486 70.601-2.935 4.156-7.782 8.815-24.606 24.201l-8.35 7.633c-8.499 7.774-11.042 10.039-13.107 11.55-23.13 16.922-56.623 13.687-80.013-7.727-2.086-1.911-4.668-4.676-13.286-14.101l-0.422-0.461c-1.963-2.146-4.023-4.403-6.49-6.746-22.549-21.453-56.166-30.447-83.61-22.374-2.974 0.875-5.026 1.673-7.002 2.436l-0.247 0.098c-65.715 25.434-127.177 62.81-181.375 112.363-54.196 49.557-96.911 107.439-128.11 170.62l-0.117 0.235c-0.939 1.903-1.914 3.878-3.052 6.763-10.492 26.608-4.534 60.896 14.818 85.272 2.114 2.663 4.178 4.919 6.143 7.066l0.42 0.46c8.618 9.425 11.141 12.243 12.858 14.493 19.239 25.209 19.471 58.859 0.554 80.383-1.689 1.921-4.176 4.254-12.675 12.026l-8.347 7.632c-16.826 15.385-21.902 19.796-26.301 22.347-21.157 12.268-48.919 9.587-70.273-6.787-4.441-3.405-9.584-8.803-26.645-27.461l-6.846-7.487c-17.022-18.617-22.752-25.042-28.286-33.597-12.645-19.544-21.491-53.665-19.602-75.607 0.852-9.904 2.187-14.833 6.463-29.922 34.726-122.549 101.057-234.959 199.172-324.67zM638.635 13.427c-135.996 25.694-264.067 86.596-370.523 183.94-106.457 97.34-178.551 219.46-216.284 352.621l-0.233 0.822c-4.157 14.665-7.021 24.769-8.436 41.218-3.243 37.671 9.825 88.074 31.534 121.629 9.494 14.674 19.793 25.935 34.743 42.278l8.441 9.232c0.818 0.894 1.624 1.776 2.418 2.645 13.54 14.82 23.744 25.988 34.482 34.222 44.351 34.009 102.011 39.578 145.952 14.097 10.639-6.17 20.702-15.38 34.056-27.602 0.783-0.717 1.578-1.444 2.384-2.182l9.552-8.733c6.757-6.175 11.84-10.821 15.924-15.468 39.29-44.703 38.808-114.59-1.15-166.948-4.153-5.442-9.307-11.076-16.157-18.564-0.402-0.439-0.81-0.885-1.224-1.338-2.627-2.873-2.779-3.068-2.973-3.312-2.939-3.702-4.209-11.006-2.615-15.048 0.115-0.292 0.168-0.41 0.241-0.569 0.143-0.309 0.335-0.701 0.874-1.793 27.974-56.651 66.296-108.611 115.036-153.176 48.738-44.565 103.91-78.093 162.833-100.898 1.135-0.439 1.54-0.597 1.86-0.713 0.166-0.060 0.29-0.098 0.589-0.188 4.169-1.229 11.332 0.687 14.754 3.947 0.226 0.213 0.431 0.41 3.034 3.255l1.225 1.34c6.848 7.492 11.998 13.129 17.050 17.749 48.58 44.471 118.144 51.191 166.178 16.051 4.992-3.652 10.074-8.303 16.828-14.481l9.549-8.734c0.806-0.738 1.604-1.463 2.385-2.18 13.367-12.207 23.441-21.41 30.532-31.454 29.303-41.493 28.907-99.418-1.007-146.628-7.245-11.43-17.455-22.588-31.010-37.397-0.794-0.87-1.6-1.754-2.419-2.645l-8.439-9.233c-14.946-16.35-25.242-27.614-39.010-38.379-31.479-24.619-80.516-42.133-118.327-42.266-16.508-0.060-26.829 1.89-41.805 4.723l-0.841 0.158zM755.2 874.667c16.495 0 29.867-13.372 29.867-29.867v-140.8h140.8c16.495 0 29.867-13.372 29.867-29.867s-13.372-29.867-29.867-29.867h-140.8v-140.8c0-16.495-13.372-29.867-29.867-29.867s-29.867 13.372-29.867 29.867v140.8h-140.8c-16.495 0-29.867 13.372-29.867 29.867s13.372 29.867 29.867 29.867h140.8v140.8c0 16.495 13.372 29.867 29.867 29.867z" />
<glyph unicode="&#xe911;" glyph-name="phone" d="M359.147 292.932c98.116-89.715 215.996-145.745 341.158-169.391 15.407-2.914 20.437-3.802 30.379-3.767 22.020 0.077 55.215 11.934 73.553 26.274 8.026 6.276 13.918 12.557 30.938 31.172l6.848 7.488c17.058 18.658 21.978 24.265 24.973 28.988 14.4 22.733 14.592 50.624 0.486 70.601-2.935 4.156-7.782 8.815-24.606 24.201l-8.35 7.633c-8.499 7.774-11.042 10.039-13.107 11.55-23.13 16.922-56.623 13.687-80.013-7.727-2.086-1.911-4.668-4.676-13.286-14.101l-0.422-0.461c-1.963-2.146-4.023-4.403-6.49-6.746-22.549-21.453-56.166-30.447-83.61-22.374-2.974 0.875-5.026 1.673-7.002 2.436l-0.247 0.098c-65.715 25.434-127.177 62.81-181.376 112.363-54.195 49.557-96.909 107.439-128.109 170.62l-0.117 0.236c-0.939 1.901-1.914 3.875-3.052 6.761-10.492 26.609-4.534 60.897 14.818 85.273 2.114 2.663 4.178 4.919 6.143 7.066l0.42 0.46c8.618 9.425 11.141 12.243 12.858 14.493 19.239 25.209 19.471 58.859 0.554 80.383-1.689 1.921-4.176 4.254-12.675 12.026l-8.347 7.632c-16.826 15.385-21.902 19.796-26.301 22.347-21.157 12.268-48.919 9.587-70.273-6.787-4.441-3.405-9.584-8.803-26.645-27.461l-6.846-7.487c-17.022-18.617-22.752-25.042-28.286-33.597-12.645-19.544-21.491-53.665-19.602-75.607 0.852-9.904 2.187-14.833 6.463-29.922 34.726-122.549 101.057-234.959 199.172-324.67zM681.301 56.094c-135.996 25.694-264.067 86.596-370.523 183.94-106.457 97.34-178.551 219.46-216.284 352.621l-0.233 0.822c-4.157 14.665-7.021 24.769-8.436 41.218-3.243 37.671 9.825 88.074 31.534 121.629 9.494 14.674 19.793 25.935 34.743 42.278l8.441 9.232c0.818 0.894 1.624 1.776 2.418 2.645 13.54 14.82 23.744 25.988 34.482 34.222 44.351 34.009 102.011 39.578 145.952 14.097 10.639-6.17 20.702-15.38 34.056-27.602 0.783-0.717 1.578-1.444 2.384-2.182l9.552-8.733c6.757-6.175 11.84-10.821 15.924-15.468 39.289-44.703 38.807-114.59-1.15-166.948-4.153-5.442-9.307-11.076-16.157-18.564-0.402-0.439-0.81-0.885-1.224-1.338-2.627-2.873-2.779-3.068-2.973-3.312-2.939-3.702-4.209-11.006-2.615-15.048 0.115-0.292 0.168-0.41 0.241-0.569 0.143-0.309 0.335-0.701 0.874-1.793 27.974-56.649 66.294-108.611 115.036-153.176 48.738-44.565 103.91-78.093 162.833-100.898 1.135-0.439 1.54-0.597 1.86-0.713 0.166-0.060 0.29-0.098 0.589-0.188 4.169-1.229 11.332 0.687 14.754 3.947 0.226 0.213 0.431 0.41 3.034 3.255l1.225 1.34c6.848 7.492 11.998 13.129 17.050 17.749 48.58 44.471 118.144 51.191 166.178 16.051 4.992-3.652 10.074-8.303 16.828-14.481l9.549-8.734c0.806-0.738 1.604-1.463 2.385-2.18 13.367-12.207 23.441-21.41 30.532-31.454 29.303-41.493 28.907-99.418-1.007-146.628-7.245-11.43-17.455-22.588-31.010-37.397-0.794-0.87-1.6-1.754-2.419-2.645l-8.439-9.233c-14.946-16.35-25.242-27.614-39.010-38.379-31.479-24.619-80.516-42.133-118.327-42.266-16.508-0.060-26.829 1.89-41.805 4.723l-0.841 0.158z" />
<glyph unicode="&#xe912;" glyph-name="marker-pin" d="M511.991 844.809c-172.018 0-311.467-139.449-311.467-311.467 0-103.347 56.717-181.321 130.345-258.010 17.635-18.368 35.916-36.343 54.431-54.554l2.135-2.099c19.125-18.812 38.481-37.892 56.887-57.289 24.444-25.762 47.868-52.74 67.669-81.664 19.802 28.924 43.226 55.902 67.669 81.664 18.406 19.396 37.764 38.477 56.887 57.289l2.133 2.099c18.517 18.206 36.796 36.186 54.434 54.554 73.626 76.689 130.342 154.662 130.342 258.010 0 172.018-139.447 311.467-311.467 311.467zM140.791 533.342c0 205.008 166.192 371.2 371.2 371.2s371.2-166.192 371.2-371.2c0-127.834-71.283-220.527-146.991-299.379-18.244-18.999-37.073-37.521-55.428-55.573l-2.338-2.295c-19.209-18.893-37.85-37.278-55.445-55.821-35.311-37.21-64.922-73.566-84.284-112.29-5.060-10.116-15.403-16.508-26.714-16.508s-21.653 6.391-26.714 16.508c-19.362 38.724-48.973 75.081-84.285 112.29-17.592 18.543-36.236 36.928-55.444 55.821l-2.336 2.295c-18.354 18.052-37.187 36.57-55.432 55.573-75.706 78.852-146.989 171.546-146.989 299.379zM511.991 652.809c-54.199 0-98.133-43.936-98.133-98.133 0-54.199 43.934-98.133 98.133-98.133s98.133 43.934 98.133 98.133c0 54.197-43.934 98.133-98.133 98.133zM354.125 554.675c0 87.187 70.679 157.867 157.867 157.867s157.867-70.679 157.867-157.867c0-87.189-70.677-157.867-157.867-157.867-87.187 0-157.867 70.677-157.867 157.867z" />
<glyph unicode="&#xe913;" glyph-name="users-01" d="M405.339 802.142c-89.544 0-162.133-72.59-162.133-162.133s72.589-162.133 162.133-162.133c89.543 0 162.132 72.589 162.132 162.133s-72.589 162.133-162.132 162.133zM183.473 640.009c0 122.534 99.333 221.867 221.867 221.867s221.865-99.333 221.865-221.867-99.332-221.867-221.865-221.867c-122.534 0-221.867 99.332-221.867 221.867zM655.927 825.342c-7.343-14.772-1.318-32.697 13.453-40.038 53.457-26.567 90.091-81.681 90.091-145.296s-36.634-118.729-90.091-145.297c-14.771-7.339-20.796-25.267-13.453-40.038 7.339-14.771 25.267-20.796 40.038-13.453 72.981 36.267 123.238 111.632 123.238 198.788s-50.257 162.519-123.238 198.788c-14.771 7.34-32.7 1.317-40.038-13.455zM405.339 290.142c-109.304 0-207.922-59.593-271.281-154.726-7.878-11.827-12.148-18.347-14.699-23.548-1.967-4.015-1.887-5.252-1.846-5.897l0.004-0.064c0.004-0.043 0.060-0.585 0.371-1.583 0.32-1.033 0.817-2.24 1.489-3.494s1.403-2.338 2.083-3.179c0.659-0.811 1.077-1.156 1.112-1.182 0.104-0.081 0.356-0.273 1.154-0.542 0.972-0.333 2.781-0.794 6.054-1.173 7.156-0.832 16.901-0.879 33.313-0.879h484.493c16.41 0 26.155 0.047 33.314 0.879 3.273 0.38 5.082 0.841 6.054 1.173 0.811 0.277 1.050 0.461 1.152 0.538-0.017-0.013 0.41 0.324 1.114 1.186 0.678 0.841 1.408 1.924 2.082 3.179 0.67 1.254 1.169 2.462 1.489 3.494 0.311 0.998 0.367 1.54 0.371 1.583 0 0 0 0 0 0l0.004 0.064c0.038 0.644 0.119 1.882-1.847 5.897-2.551 5.201-6.822 11.721-14.699 23.548-63.36 95.134-161.98 154.726-271.282 154.726zM84.342 168.529c72.689 109.137 188.754 181.346 320.997 181.346s248.31-72.209 320.997-181.346l0.828-1.246c6.737-10.108 13.291-19.942 17.788-29.12 5.205-10.611 8.657-22.17 7.834-35.836-0.649-10.854-4.297-21.235-8.823-29.696-4.531-8.461-11.149-17.246-19.827-23.808-11.546-8.734-24.179-11.989-36.335-13.402-11.025-1.284-24.303-1.28-38.729-1.28h-487.465c-14.424 0-27.702-0.004-38.728 1.28-12.154 1.412-24.787 4.668-36.335 13.402-8.676 6.562-15.295 15.347-19.825 23.808s-8.175 18.842-8.826 29.696c-0.82 13.666 2.631 25.225 7.834 35.836 4.501 9.178 11.052 19.012 17.788 29.12l0.829 1.246zM741.316 297.707c-7.403-14.737-1.455-32.691 13.282-40.094 56.785-28.527 106.061-74.62 142.285-132.966 4.105-6.618 6.153-9.967 7.497-12.651 1.007-2.010 1.143-2.735 1.242-3.362 0.107-0.708 0.021-3.738-2.219-7.761s-4.766-5.696-5.427-5.978c-1.088-0.465-2.782-1.020-23.305-1.020-16.495 0-29.867-13.372-29.867-29.867s13.372-29.867 29.867-29.867c1.152 0 2.308-0.004 3.469-0.009 14.413-0.038 29.402-0.077 43.196 5.786 15.59 6.622 27.153 19.127 34.27 31.919 7.113 12.787 11.639 29.21 9.041 45.948-2.283 14.75-9.207 25.852-15.689 36.233-0.444 0.713-0.887 1.425-1.327 2.133-41.527 66.893-98.769 120.956-166.217 154.837-14.741 7.407-32.691 1.459-40.098-13.282z" />
<glyph unicode="&#xe914;" glyph-name="folder-shield" d="M434.671 799.106c7.774-2.681 14.852-7.056 20.727-12.809 5.786-5.669 10.283-13.79 24.951-43.124l25.984-51.969h-391.142v4.267c0 24.388 0.023 40.883 1.063 53.615 1.012 12.382 2.834 18.552 4.982 22.767 5.318 10.437 13.803 18.922 24.24 24.24 4.215 2.148 10.384 3.971 22.767 4.982 12.731 1.040 29.226 1.064 53.615 1.064h163.084c32.796 0 42.069-0.39 49.728-3.032zM573.116 691.204l-39.339 78.683c-0.674 1.346-1.335 2.674-1.993 3.985-11.729 23.499-20.715 41.51-34.59 55.099-12.198 11.948-26.901 21.035-43.046 26.603-18.359 6.332-38.487 6.318-64.749 6.298-1.466-0.001-2.951-0.002-4.456-0.002h-164.309c-22.854 0-41.801 0-57.254-1.262-16.077-1.313-30.982-4.141-45.021-11.294-21.676-11.044-39.299-28.668-50.344-50.344-7.153-14.039-9.981-28.944-11.294-45.021-1.263-15.453-1.262-34.4-1.262-57.254v-429.18c0-34.752-0.001-62.647 1.843-85.214 1.895-23.189 5.885-43.366 15.363-61.969 15.135-29.705 39.286-53.854 68.99-68.988 18.603-9.481 38.776-13.47 61.968-15.364 22.565-1.843 50.464-1.843 85.216-1.843h446.304c34.752 0 62.652 0 85.218 1.843 23.189 1.894 43.366 5.884 61.969 15.364 29.705 15.134 53.854 39.283 68.988 68.988 9.481 18.603 13.47 38.78 15.364 61.969 1.843 22.566 1.843 50.466 1.843 85.218v190.302c0 34.752 0 62.652-1.843 85.218-1.894 23.191-5.884 43.366-15.364 61.968-15.134 29.705-39.283 53.855-68.988 68.99-18.603 9.478-38.78 13.469-61.969 15.363-22.566 1.844-50.462 1.843-85.214 1.843h-162.031zM554.057 631.471c0.418-0.009 0.832-0.009 1.25 0h178.551c36.335 0 61.794-0.023 81.638-1.645 19.499-1.593 30.933-4.579 39.714-9.051 18.466-9.408 33.476-24.421 42.884-42.886 4.471-8.778 7.458-20.216 9.054-39.713 1.621-19.848 1.643-45.303 1.643-81.638v-187.733c0-36.335-0.021-61.794-1.643-81.638-1.596-19.499-4.582-30.933-9.054-39.714-9.408-18.466-24.418-33.476-42.884-42.884-8.781-4.471-20.215-7.458-39.714-9.054-19.844-1.621-45.303-1.643-81.638-1.643h-443.733c-36.336 0-61.792 0.021-81.638 1.643-19.497 1.596-30.935 4.582-39.713 9.054-18.465 9.408-33.478 24.418-42.886 42.884-4.473 8.781-7.458 20.215-9.051 39.714-1.621 19.844-1.644 45.303-1.644 81.638v362.667h438.865zM556.727 534.097l93.312-33.344c11.887-4.245 19.819-15.505 19.819-28.126v-106.765c0-59.695-41.152-105.506-74.735-133.517-17.536-14.626-34.918-26.001-47.846-33.702-6.494-3.87-11.951-6.865-15.846-8.922-1.95-1.028-3.516-1.826-4.634-2.385l-1.335-0.661-0.401-0.196-0.132-0.060-0.051-0.026c-0.009-0.004-0.034-0.017-12.885 26.944-12.851-26.961-12.86-26.957-12.868-26.953l-0.068 0.034-0.132 0.060-0.401 0.196-1.335 0.661c-1.118 0.559-2.684 1.357-4.634 2.385-3.895 2.057-9.353 5.052-15.846 8.922-12.928 7.701-30.31 19.076-47.846 33.702-33.582 28.011-74.735 73.822-74.735 133.517v106.765c0 12.621 7.93 23.876 19.812 28.126l93.271 33.344c28.928 10.363 60.587 10.358 89.519 0zM511.991 213.338l12.885-26.944c-8.128-3.874-17.626-3.883-25.754-0.009l12.868 26.953zM511.991 247.202c1.476 0.845 3.051 1.766 4.715 2.756 11.072 6.596 25.69 16.192 40.154 28.258 30.417 25.37 53.265 55.825 53.265 87.646v85.722l-73.519 26.27c-15.915 5.7-33.344 5.709-49.254 0.009l-73.493-26.274v-85.726c0-31.821 22.848-62.276 53.265-87.646 14.464-12.066 29.082-21.662 40.154-28.258 1.664-0.99 3.238-1.911 4.715-2.756z" />
<glyph unicode="&#xe915;" glyph-name="dots-grid" d="M213.325 759.475c-7.069 0-12.8-5.731-12.8-12.8s5.731-12.8 12.8-12.8c7.069 0 12.8 5.731 12.8 12.8s-5.731 12.8-12.8 12.8zM140.791 746.675c0 40.059 32.474 72.533 72.533 72.533s72.533-32.474 72.533-72.533c0-40.059-32.474-72.533-72.533-72.533s-72.533 32.474-72.533 72.533zM511.991 759.475c-7.070 0-12.8-5.731-12.8-12.8s5.73-12.8 12.8-12.8c7.070 0 12.8 5.731 12.8 12.8s-5.73 12.8-12.8 12.8zM439.458 746.675c0 40.059 32.474 72.533 72.533 72.533s72.533-32.474 72.533-72.533c0-40.059-32.474-72.533-72.533-72.533s-72.533 32.474-72.533 72.533zM810.658 759.475c-7.070 0-12.8-5.731-12.8-12.8s5.73-12.8 12.8-12.8c7.070 0 12.8 5.731 12.8 12.8s-5.73 12.8-12.8 12.8zM738.125 746.675c0 40.059 32.474 72.533 72.533 72.533s72.533-32.474 72.533-72.533c0-40.059-32.474-72.533-72.533-72.533s-72.533 32.474-72.533 72.533zM213.325 460.809c-7.069 0-12.8-5.73-12.8-12.8s5.731-12.8 12.8-12.8c7.069 0 12.8 5.73 12.8 12.8s-5.731 12.8-12.8 12.8zM140.791 448.009c0 40.060 32.474 72.533 72.533 72.533s72.533-32.474 72.533-72.533c0-40.060-32.474-72.533-72.533-72.533s-72.533 32.474-72.533 72.533zM511.991 460.809c-7.070 0-12.8-5.73-12.8-12.8s5.73-12.8 12.8-12.8c7.070 0 12.8 5.73 12.8 12.8s-5.73 12.8-12.8 12.8zM439.458 448.009c0 40.060 32.474 72.533 72.533 72.533s72.533-32.474 72.533-72.533c0-40.060-32.474-72.533-72.533-72.533s-72.533 32.474-72.533 72.533zM810.658 460.809c-7.070 0-12.8-5.73-12.8-12.8s5.73-12.8 12.8-12.8c7.070 0 12.8 5.73 12.8 12.8s-5.73 12.8-12.8 12.8zM738.125 448.009c0 40.060 32.474 72.533 72.533 72.533s72.533-32.474 72.533-72.533c0-40.060-32.474-72.533-72.533-72.533s-72.533 32.474-72.533 72.533zM213.325 162.142c-7.069 0-12.8-5.73-12.8-12.8s5.731-12.8 12.8-12.8c7.069 0 12.8 5.73 12.8 12.8s-5.731 12.8-12.8 12.8zM140.791 149.342c0 40.060 32.474 72.533 72.533 72.533s72.533-32.474 72.533-72.533c0-40.060-32.474-72.533-72.533-72.533s-72.533 32.474-72.533 72.533zM511.991 162.142c-7.070 0-12.8-5.73-12.8-12.8s5.73-12.8 12.8-12.8c7.070 0 12.8 5.73 12.8 12.8s-5.73 12.8-12.8 12.8zM439.458 149.342c0 40.060 32.474 72.533 72.533 72.533s72.533-32.474 72.533-72.533c0-40.060-32.474-72.533-72.533-72.533s-72.533 32.474-72.533 72.533zM810.658 162.142c-7.070 0-12.8-5.73-12.8-12.8s5.73-12.8 12.8-12.8c7.070 0 12.8 5.73 12.8 12.8s-5.73 12.8-12.8 12.8zM738.125 149.342c0 40.060 32.474 72.533 72.533 72.533s72.533-32.474 72.533-72.533c0-40.060-32.474-72.533-72.533-72.533s-72.533 32.474-72.533 72.533z" />
<glyph unicode="&#xe916;" glyph-name="layout-left" d="M331.504 861.875h360.976c34.752 0 62.647 0 85.214-1.843 23.189-1.895 43.366-5.885 61.969-15.363 29.705-15.135 53.854-39.286 68.988-68.99 9.481-18.603 13.47-38.776 15.364-61.968 1.843-22.565 1.843-50.464 1.843-85.216v-360.97c0-34.752 0-62.652-1.843-85.218-1.894-23.189-5.884-43.366-15.364-61.969-15.134-29.705-39.283-53.854-68.988-68.988-18.603-9.481-38.78-13.47-61.969-15.364-22.566-1.843-50.466-1.843-85.218-1.843h-360.97c-34.752 0-62.651 0-85.216 1.843-23.191 1.894-43.365 5.884-61.968 15.364-29.705 15.134-53.855 39.283-68.99 68.988-9.478 18.603-13.469 38.78-15.363 61.969-1.844 22.566-1.843 50.462-1.843 85.214v360.976c0 34.751 0 62.65 1.843 85.214 1.895 23.191 5.885 43.365 15.363 61.968 15.135 29.705 39.286 53.855 68.99 68.99 18.603 9.478 38.776 13.469 61.968 15.363 22.565 1.844 50.463 1.843 85.214 1.843zM413.858 93.875h277.333c36.335 0 61.794 0.021 81.638 1.643 19.499 1.596 30.933 4.582 39.714 9.054 18.466 9.408 33.476 24.418 42.884 42.884 4.471 8.781 7.458 20.215 9.054 39.714 1.621 19.844 1.643 45.303 1.643 81.638v358.4c0 36.336-0.021 61.792-1.643 81.638-1.596 19.497-4.582 30.935-9.054 39.713-9.408 18.465-24.418 33.478-42.884 42.886-8.781 4.473-20.215 7.458-39.714 9.051-19.844 1.621-45.303 1.645-81.638 1.645h-277.333v-708.267zM354.125 802.142h-21.333c-36.336 0-61.792-0.023-81.638-1.645-19.497-1.593-30.935-4.579-39.713-9.051-18.465-9.408-33.478-24.421-42.886-42.886-4.473-8.778-7.458-20.216-9.051-39.713-1.621-19.846-1.645-45.302-1.645-81.638v-358.4c0-36.335 0.023-61.794 1.645-81.638 1.593-19.499 4.579-30.933 9.051-39.714 9.408-18.466 24.421-33.476 42.886-42.884 8.778-4.471 20.216-7.458 39.713-9.054 19.846-1.621 45.302-1.643 81.638-1.643h21.334v708.267z" />
<glyph unicode="&#xe917;" glyph-name="file" d="M374.17 904.542h223.154c7.923 0 15.518-3.147 21.12-8.748l256-256c5.602-5.601 8.747-13.198 8.747-21.119v-393.818c0-34.752 0-62.652-1.843-85.218-1.894-23.189-5.884-43.366-15.364-61.969-15.134-29.705-39.283-53.854-68.988-68.988-18.603-9.481-38.78-13.47-61.969-15.364-22.566-1.843-50.466-1.843-85.218-1.843h-275.637c-34.752 0-62.651 0-85.216 1.843-23.191 1.894-43.365 5.884-61.968 15.364-29.705 15.134-53.855 39.283-68.99 68.988-9.478 18.603-13.469 38.78-15.363 61.969-1.844 22.566-1.843 50.462-1.843 85.214v446.31c0 34.751 0 62.65 1.843 85.214 1.895 23.191 5.885 43.365 15.363 61.968 15.135 29.705 39.286 53.855 68.99 68.99 18.603 9.478 38.776 13.469 61.968 15.363 22.565 1.844 50.463 1.843 85.214 1.843zM293.82 843.164c-19.497-1.593-30.935-4.579-39.713-9.051-18.465-9.408-33.478-24.421-42.886-42.886-4.473-8.778-7.458-20.216-9.051-39.713-1.621-19.846-1.645-45.302-1.645-81.638v-443.733c0-36.335 0.023-61.794 1.645-81.638 1.593-19.499 4.579-30.933 9.051-39.714 9.408-18.466 24.421-33.476 42.886-42.884 8.778-4.471 20.216-7.458 39.713-9.054 19.846-1.621 45.302-1.643 81.638-1.643h273.066c36.335 0 61.794 0.021 81.638 1.643 19.499 1.596 30.933 4.582 39.714 9.054 18.466 9.408 33.476 24.418 42.884 42.884 4.471 8.781 7.458 20.215 9.054 39.714 1.621 19.844 1.643 45.303 1.643 81.638v362.663h-158.929c-11.038 0-21.047-0.001-29.393 0.681-8.96 0.732-18.598 2.397-28.075 7.225-13.649 6.954-24.742 18.050-31.697 31.698-4.83 9.475-6.494 19.112-7.223 28.074-0.683 8.346-0.683 18.357-0.683 29.391v158.934h-192c-36.336 0-61.792-0.023-81.638-1.645zM627.191 802.571v-115.632c0-12.44 0.021-19.975 0.482-25.591 0.333-4.070 0.802-5.533 0.917-5.827 1.225-2.403 3.179-4.357 5.581-5.583 0.294-0.114 1.758-0.584 5.828-0.917 5.615-0.459 13.15-0.482 25.591-0.482h115.631l-154.031 154.032zM311.458 576.009c0-16.495 13.372-29.867 29.867-29.867h85.333c16.495 0 29.867 13.372 29.867 29.867s-13.372 29.866-29.867 29.866h-85.333c-16.495 0-29.867-13.372-29.867-29.866zM311.458 405.342c0-16.495 13.372-29.867 29.867-29.867h341.333c16.495 0 29.867 13.372 29.867 29.867s-13.372 29.867-29.867 29.867h-341.333c-16.495 0-29.867-13.372-29.867-29.867zM311.458 234.675c0-16.495 13.372-29.867 29.867-29.867h341.333c16.495 0 29.867 13.372 29.867 29.867s-13.372 29.867-29.867 29.867h-341.333c-16.495 0-29.867-13.372-29.867-29.867z" />
<glyph unicode="&#xe918;" glyph-name="arrow-left" d="M447.778 725.127c11.661-11.664 11.661-30.574 0-42.238l-205.015-205.014h610.562c16.495 0 29.867-13.372 29.867-29.867s-13.372-29.867-29.867-29.867h-610.562l205.015-205.013c11.661-11.665 11.661-30.575 0-42.24-11.665-11.661-30.575-11.661-42.239 0l-256 256c-11.664 11.665-11.664 30.575 0 42.24l256 255.999c11.664 11.664 30.574 11.664 42.239 0z" />
<glyph unicode="&#xe919;" glyph-name="building" d="M263.3 861.875h156.049c22.856 0 41.8 0.001 57.254-1.262 16.077-1.313 30.98-4.141 45.022-11.294 21.675-11.045 39.3-28.668 50.342-50.344 7.155-14.039 9.98-28.944 11.294-45.021 1.263-15.453 1.263-34.4 1.263-57.254v-176.158h176.158c22.857 0 41.801 0 57.254-1.263 16.077-1.314 30.98-4.139 45.022-11.294 21.675-11.042 39.3-28.668 50.342-50.342 7.155-14.042 9.98-28.945 11.294-45.022 1.263-15.454 1.263-34.402 1.263-57.254v-261.491h12.8c16.495 0 29.867-13.372 29.867-29.867s-13.372-29.867-29.867-29.867h-853.333c-16.495 0-29.867 13.372-29.867 29.867s13.372 29.867 29.867 29.867h12.8v602.825c0 22.854 0 41.801 1.262 57.254 1.313 16.077 4.141 30.982 11.294 45.021 11.045 21.676 28.668 39.299 50.344 50.344 14.039 7.153 28.944 9.981 45.021 11.294 15.453 1.263 34.4 1.262 57.254 1.262zM157.858 93.875h366.933v601.6c0 24.389-0.021 40.884-1.062 53.615-1.011 12.382-2.837 18.552-4.983 22.767-5.316 10.437-13.803 18.922-24.239 24.24-4.215 2.148-10.385 3.971-22.767 4.982-12.732 1.040-29.227 1.063-53.615 1.063h-153.6c-24.388 0-40.883-0.023-53.615-1.063-12.382-1.012-18.552-2.834-22.767-4.982-10.437-5.318-18.922-13.803-24.24-24.24-2.148-4.215-3.971-10.384-4.982-22.767-1.040-12.731-1.064-29.226-1.064-53.615v-601.6zM584.525 460.809v-366.933h281.6v260.267c0 24.388-0.021 40.883-1.062 53.615-1.011 12.382-2.837 18.551-4.983 22.767-5.316 10.436-13.803 18.923-24.239 24.239-4.215 2.146-10.385 3.972-22.767 4.983-12.732 1.041-29.227 1.062-53.615 1.062h-174.933zM247.458 661.341c0-16.495 13.372-29.867 29.867-29.867h128c16.495 0 29.867 13.372 29.867 29.867s-13.372 29.867-29.867 29.867h-128c-16.495 0-29.867-13.372-29.867-29.867zM247.458 490.675c0-16.495 13.372-29.867 29.867-29.867h128c16.495 0 29.867 13.372 29.867 29.867s-13.372 29.867-29.867 29.867h-128c-16.495 0-29.867-13.372-29.867-29.867zM247.458 320.009c0-16.495 13.372-29.867 29.867-29.867h128c16.495 0 29.867 13.372 29.867 29.867s-13.372 29.867-29.867 29.867h-128c-16.495 0-29.867-13.372-29.867-29.867z" />
<glyph unicode="&#xe91a;" glyph-name="arrow-right" d="M576.205 725.127c11.665 11.664 30.575 11.664 42.24 0l256-255.999c11.661-11.665 11.661-30.575 0-42.24l-256-256c-11.665-11.661-30.575-11.661-42.24 0-11.661 11.665-11.661 30.575 0 42.24l205.018 205.013h-610.564c-16.495 0-29.867 13.372-29.867 29.867s13.372 29.867 29.867 29.867h610.564l-205.018 205.014c-11.661 11.664-11.661 30.574 0 42.238z" />
<glyph unicode="&#xe91b;" glyph-name="slash-circle" d="M211.084 706.678c-59.766-69.462-95.892-159.847-95.892-258.67 0-219.149 177.654-396.8 396.8-396.8 98.825 0 189.21 36.126 258.671 95.893l-559.578 559.576zM253.322 748.916l559.576-559.578c59.767 69.461 95.893 159.846 95.893 258.671 0 219.146-177.651 396.8-396.8 396.8-98.823 0-189.208-36.126-258.67-95.892zM55.458 448.009c0 252.136 204.397 456.533 456.533 456.533 252.139 0 456.533-204.397 456.533-456.533 0-252.139-204.395-456.533-456.533-456.533-252.136 0-456.533 204.395-456.533 456.533z" />
<glyph unicode="&#xe91c;" glyph-name="coins-stacked" d="M115.191 746.675c0 0.135-0.001 0.896 0.93 2.55 1.031 1.833 3.132 4.593 7.116 8.018 8.152 7.008 21.695 14.673 41.027 21.703 38.418 13.97 93.472 23.196 155.727 23.196s117.308-9.225 155.729-23.196c19.332-7.030 32.875-14.695 41.024-21.703 3.985-3.425 6.089-6.185 7.117-8.018 0.93-1.654 0.93-2.433 0.93-2.568 0-0.003 0 0.005 0 0 0-0.164-0.026-0.924-0.93-2.533-1.028-1.833-3.132-4.593-7.117-8.018-8.149-7.008-21.692-14.673-41.024-21.703-38.421-13.97-93.474-23.195-155.729-23.195s-117.309 9.225-155.727 23.195c-19.332 7.030-32.875 14.695-41.027 21.703-3.984 3.425-6.085 6.185-7.116 8.018-0.902 1.603-0.929 2.383-0.93 2.551zM526.882 671.679c4.378-11.054 15.164-18.871 27.776-18.871 16.495 0 29.867 13.372 29.867 29.867v64c0 23.761-13.338 42.536-28.838 55.863-15.595 13.41-36.42 24.133-59.554 32.545-46.515 16.914-108.793 26.792-176.141 26.792s-129.627-9.878-176.141-26.792c-23.134-8.412-43.957-19.135-59.555-32.545-15.501-13.327-28.838-32.102-28.838-55.863v-512c0-23.761 13.337-42.539 28.838-55.863 15.598-13.41 36.421-24.132 59.555-32.546 46.514-16.913 108.794-26.79 176.141-26.79 16.495 0 29.867 13.372 29.867 29.867s-13.372 29.867-29.867 29.867c-62.255 0-117.309 9.225-155.727 23.194-19.332 7.031-32.875 14.694-41.027 21.705-3.984 3.426-6.085 6.187-7.116 8.017-0.931 1.655-0.93 2.411-0.93 2.547v94.592c8.955-4.565 18.588-8.666 28.659-12.331 46.514-16.913 108.794-26.79 176.141-26.79 16.495 0 29.867 13.372 29.867 29.867s-13.372 29.867-29.867 29.867c-62.255 0-117.309 9.225-155.727 23.194-19.332 7.031-32.875 14.694-41.027 21.705-3.984 3.426-6.085 6.187-7.116 8.017-0.902 1.604-0.929 2.364-0.93 2.53v94.609c6.669-3.401 13.691-6.532 20.956-9.408 42.426-16.794 99.347-27.311 161.533-29.35 7.353-0.239 14.795-0.363 22.311-0.363 16.495 0 29.867 13.372 29.867 29.867s-13.372 29.867-29.867 29.867c-6.865 0-13.655 0.111-20.355 0.333-57.42 1.882-107.165 11.597-141.505 25.189-17.271 6.836-29.114 14.054-36.134 20.475-3.418 3.126-5.181 5.599-6.033 7.204-0.763 1.438-0.774 2.108-0.774 2.257 0-0.002 0 0.002 0 0v94.598c8.955-4.569 18.588-8.669 28.659-12.331 46.514-16.914 108.794-26.792 176.141-26.792s129.626 9.877 176.141 26.792c10.859 3.949 21.21 8.407 30.75 13.412zM499.191 469.342c0 0.137 0 0.896 0.93 2.551 1.033 1.83 3.132 4.591 7.117 8.017 8.149 7.006 21.692 14.673 41.024 21.705 38.421 13.969 93.474 23.194 155.729 23.194s117.308-9.225 155.729-23.194c19.332-7.031 32.875-14.699 41.024-21.705 3.985-3.426 6.089-6.187 7.117-8.017 0.943-1.677 0.93-2.449 0.93-2.569 0-0.004 0 0.004 0 0 0-0.162-0.021-0.922-0.93-2.534-1.028-1.83-3.132-4.591-7.117-8.017-8.149-7.010-21.692-14.673-41.024-21.705-38.421-13.969-93.474-23.194-155.729-23.194s-117.308 9.225-155.729 23.194c-19.332 7.031-32.875 14.694-41.024 21.705-3.985 3.426-6.084 6.187-7.117 8.017-0.905 1.609-0.93 2.385-0.93 2.551 0 0.004 0-0.004 0 0zM908.791 393.263v-83.938c0-0.004 0 0.004 0 0 0-0.162-0.021-0.922-0.93-2.534-1.028-1.83-3.132-4.591-7.117-8.017-8.149-7.010-21.692-14.673-41.024-21.705-38.421-13.969-93.474-23.194-155.729-23.194s-117.308 9.225-155.729 23.194c-19.332 7.031-32.875 14.694-41.024 21.705-3.985 3.426-6.084 6.187-7.117 8.017-0.905 1.609-0.93 2.385-0.93 2.551 0 0.004 0-0.004 0 0v83.921c8.956-4.565 18.59-8.666 28.659-12.331 46.515-16.913 108.791-26.79 176.141-26.79s129.626 9.877 176.141 26.79c10.074 3.665 19.703 7.765 28.659 12.331zM968.525 469.342c0 23.761-13.338 42.534-28.838 55.863-15.595 13.409-36.42 24.132-59.554 32.544-46.515 16.914-108.791 26.792-176.141 26.792s-129.626-9.878-176.141-26.792c-23.134-8.412-43.959-19.135-59.554-32.544-15.501-13.329-28.838-32.102-28.838-55.863v-320c0-23.761 13.338-42.539 28.838-55.863 15.595-13.41 36.42-24.132 59.554-32.546 46.515-16.913 108.791-26.79 176.141-26.79s129.626 9.877 176.141 26.79c23.134 8.414 43.959 19.136 59.554 32.546 15.501 13.325 28.838 32.102 28.838 55.863v320zM908.791 233.263v-83.921c0-0.119 0.013-0.875-0.93-2.551-1.028-1.83-3.132-4.591-7.117-8.017-8.149-7.010-21.692-14.673-41.024-21.705-38.421-13.969-93.474-23.194-155.729-23.194s-117.308 9.225-155.729 23.194c-19.332 7.031-32.875 14.694-41.024 21.705-3.985 3.426-6.084 6.187-7.117 8.017-0.93 1.655-0.93 2.415-0.93 2.551v83.921c8.956-4.565 18.59-8.666 28.659-12.331 46.515-16.913 108.791-26.79 176.141-26.79s129.626 9.877 176.141 26.79c10.074 3.665 19.703 7.765 28.659 12.331z" />
<glyph unicode="&#xe91d;" glyph-name="star" d="M489.958 872.682c13.939 6.646 30.131 6.646 44.070 0 11.546-5.504 18.227-15.218 22.144-21.62 4.015-6.557 8.222-15.080 12.676-24.111l93.833-190.088c0.371-0.756 0.7-1.416 0.99-2.007 0.653-0.097 1.382-0.204 2.219-0.326l209.877-30.677c9.963-1.455 19.366-2.828 26.837-4.625 7.296-1.754 18.594-5.117 27.392-14.399 10.615-11.208 15.612-26.609 13.589-41.916-1.673-12.678-8.849-22.030-13.73-27.73-4.996-5.841-11.806-12.471-19.017-19.494l-151.812-147.866c-0.606-0.589-1.135-1.105-1.609-1.566 0.111-0.653 0.235-1.378 0.38-2.214l35.819-208.853c1.707-9.929 3.315-19.298 3.921-26.965 0.593-7.484 0.896-19.273-5.21-30.515-7.369-13.568-20.471-23.087-35.657-25.903-12.578-2.33-23.697 1.604-30.63 4.48-7.104 2.948-15.518 7.373-24.431 12.062l-187.631 98.675c-0.747 0.393-1.399 0.734-1.988 1.041-0.585-0.307-1.237-0.649-1.984-1.041l-187.633-98.675c-8.914-4.689-17.328-9.114-24.43-12.062-6.934-2.876-18.051-6.81-30.629-4.48-15.185 2.816-28.288 12.335-35.659 25.903-6.106 11.243-5.801 23.031-5.208 30.515 0.607 7.667 2.215 17.037 3.919 26.965l35.821 208.853c0.143 0.836 0.267 1.562 0.378 2.214-0.473 0.461-1.001 0.977-1.606 1.566l-151.814 147.866c-7.212 7.023-14.020 13.653-19.017 19.494-4.879 5.7-12.055 15.053-13.729 27.73-2.021 15.307 2.973 30.708 13.591 41.916 8.794 9.283 20.092 12.645 27.389 14.399 7.473 1.797 16.876 3.171 26.836 4.625 0.395 0.058 0.79 0.116 1.186 0.174l208.694 30.504c0.835 0.122 1.563 0.228 2.216 0.326 0.294 0.591 0.62 1.251 0.993 2.007l93.829 190.088c4.454 9.030 8.661 17.553 12.676 24.111 3.921 6.402 10.603 16.116 22.148 21.62zM511.991 807.155c-1.131-2.264-2.394-4.82-3.823-7.718l-93.3-189.012c-0.192-0.388-0.395-0.806-0.611-1.249-2.143-4.4-5.505-11.303-10.767-16.966-4.508-4.852-9.914-8.783-15.92-11.576-7.010-3.26-14.612-4.33-19.459-5.012-0.488-0.069-0.948-0.133-1.376-0.196l-208.694-30.504c-3.197-0.468-6.017-0.882-8.518-1.26 1.804-1.774 3.844-3.764 6.159-6.019l150.956-147.030c0.311-0.303 0.646-0.627 1.001-0.969 3.529-3.401 9.065-8.738 12.831-15.501 3.226-5.794 5.296-12.16 6.095-18.743 0.932-7.684-0.408-15.258-1.262-20.083-0.086-0.486-0.167-0.943-0.241-1.37l-35.619-207.676c-0.547-3.187-1.027-5.999-1.443-8.495 2.246 1.169 4.772 2.492 7.634 3.998l186.572 98.116c0.38 0.201 0.794 0.418 1.229 0.653 4.322 2.304 11.11 5.918 18.705 7.407 6.507 1.276 13.201 1.276 19.708 0 7.595-1.489 14.379-5.103 18.705-7.407 0.435-0.235 0.845-0.452 1.229-0.653l186.569-98.116c2.863-1.506 5.389-2.829 7.637-3.998-0.418 2.496-0.896 5.308-1.446 8.495l-35.618 207.676c-0.073 0.427-0.154 0.883-0.239 1.37-0.853 4.826-2.193 12.399-1.263 20.083 0.798 6.583 2.867 12.949 6.093 18.743 3.767 6.763 9.306 12.1 12.834 15.501 0.354 0.341 0.691 0.666 0.998 0.969l150.959 147.030c2.313 2.255 4.352 4.245 6.157 6.019-2.5 0.378-5.321 0.792-8.516 1.26l-208.695 30.504c-0.431 0.063-0.887 0.127-1.378 0.196-4.847 0.682-12.446 1.752-19.456 5.012-6.007 2.793-11.413 6.724-15.923 11.576-5.261 5.664-8.623 12.566-10.765 16.966-0.218 0.443-0.418 0.861-0.61 1.249l-93.299 189.012c-1.429 2.898-2.697 5.454-3.827 7.718z" />
<glyph unicode="&#xe91e;" glyph-name="refresh-cw" d="M786.236 636.567l-51.366 13.763c-15.932 4.269-32.307-5.186-36.578-21.119-4.267-15.933 5.188-32.31 21.12-36.579l116.565-31.234c7.654-2.050 15.804-0.977 22.665 2.984s11.866 10.484 13.918 18.135l31.232 116.568c4.271 15.933-5.184 32.31-21.12 36.579-15.932 4.269-32.307-5.186-36.578-21.119l-11.49-42.89c-115.081 166.397-340.578 219.239-518.883 116.295-113.022-65.253-181.298-178.249-194.118-298.691-1.746-16.401 10.135-31.113 26.538-32.858s31.114 10.133 32.86 26.539c10.886 102.269 68.799 197.976 164.587 253.279 151.548 87.496 343.305 42.254 440.649-99.651zM875.819 439.595c-16.401 1.745-31.113-10.138-32.858-26.539-10.889-102.272-68.8-197.978-164.587-253.282-151.552-87.497-343.312-42.253-440.653 99.661l51.391-13.773c15.933-4.267 32.31 5.188 36.579 21.12s-5.186 32.311-21.119 36.578l-116.567 31.236c-15.933 4.271-32.31-5.188-36.579-21.12l-31.235-116.565c-4.269-15.936 5.186-32.311 21.119-36.582 15.933-4.267 32.31 5.188 36.579 21.12l11.486 42.867c115.085-166.379 340.57-219.209 518.865-116.271 113.020 65.254 181.299 178.249 194.116 298.688 1.745 16.401-10.133 31.117-26.539 32.862z" />
<glyph unicode="&#xe91f;" glyph-name="layout-alt" d="M331.504 861.875h360.976c34.752 0 62.647 0 85.214-1.843 23.189-1.895 43.366-5.885 61.969-15.363 29.705-15.135 53.854-39.286 68.988-68.99 9.481-18.603 13.47-38.776 15.364-61.968 1.843-22.565 1.843-50.464 1.843-85.216v-360.97c0-34.752 0-62.652-1.843-85.218-1.894-23.189-5.884-43.366-15.364-61.969-15.134-29.705-39.283-53.854-68.988-68.988-18.603-9.481-38.78-13.47-61.969-15.364-22.566-1.843-50.466-1.843-85.218-1.843h-360.97c-34.752 0-62.651 0-85.216 1.843-23.191 1.894-43.365 5.884-61.968 15.364-29.705 15.134-53.855 39.283-68.99 68.988-9.478 18.603-13.469 38.78-15.363 61.969-1.844 22.566-1.843 50.462-1.843 85.214v360.976c0 34.751 0 62.65 1.843 85.214 1.895 23.191 5.885 43.365 15.363 61.968 15.135 29.705 39.286 53.855 68.99 68.99 18.603 9.478 38.776 13.469 61.968 15.363 22.565 1.844 50.463 1.843 85.214 1.843zM157.858 546.142v-277.333c0-36.335 0.023-61.794 1.645-81.638 1.593-19.499 4.579-30.933 9.051-39.714 9.408-18.466 24.421-33.476 42.886-42.884 8.778-4.471 20.216-7.458 39.713-9.054 19.846-1.621 45.302-1.643 81.638-1.643h21.334v452.267h-196.267zM157.858 605.875h708.267v21.333c0 36.336-0.021 61.792-1.643 81.638-1.596 19.497-4.582 30.935-9.054 39.713-9.408 18.465-24.418 33.478-42.884 42.886-8.781 4.473-20.215 7.458-39.714 9.051-19.844 1.621-45.303 1.645-81.638 1.645h-358.4c-36.336 0-61.792-0.023-81.638-1.645-19.497-1.593-30.935-4.579-39.713-9.051-18.465-9.408-33.478-24.421-42.886-42.886-4.473-8.778-7.458-20.216-9.051-39.713-1.621-19.846-1.645-45.302-1.645-81.638v-21.334zM413.858 546.142v-452.267h277.333c36.335 0 61.794 0.021 81.638 1.643 19.499 1.596 30.933 4.582 39.714 9.054 18.466 9.408 33.476 24.418 42.884 42.884 4.471 8.781 7.458 20.215 9.054 39.714 1.621 19.844 1.643 45.303 1.643 81.638v277.333h-452.267z" />
<glyph unicode="&#xe920;" glyph-name="settings" d="M511.991 844.809c-12.655 0-24.789-5.027-33.737-13.974s-13.973-21.082-13.973-33.736v-6.713c-0.073-18.306-5.495-36.192-15.603-51.454s-24.459-27.237-41.285-34.448c-2.798-1.199-5.758-1.961-8.776-2.265-15.545-5.624-32.339-7.056-48.68-4.093-18.454 3.346-35.483 12.144-48.891 25.259l-0.236 0.23-2.326 2.328c-4.431 4.436-9.705 7.967-15.496 10.368s-12 3.636-18.27 3.636c-6.27 0-12.478-1.236-18.27-3.636s-11.053-5.92-15.484-10.356c-4.436-4.431-7.978-9.716-10.38-15.508s-3.636-12-3.636-18.27c0-6.269 1.236-12.478 3.636-18.269s5.92-11.054 10.356-15.485l2.572-2.572c13.115-13.408 21.911-30.438 25.257-48.892 3.29-18.145 1.161-36.849-6.109-53.781-6.563-17.304-18.097-32.291-33.161-43.064-15.32-10.957-33.582-17.050-52.412-17.493l-0.698-0.004h-3.491c-12.653 0-24.788-5.030-33.736-13.978s-13.974-21.082-13.974-33.732c0-12.655 5.027-24.789 13.974-33.737s21.082-13.973 33.736-13.973h6.713c18.306-0.073 36.192-5.5 51.454-15.607 15.218-10.078 27.167-24.371 34.385-41.135 7.521-17.122 9.757-36.1 6.421-54.502-3.346-18.453-12.144-35.482-25.259-48.887l-0.23-0.239-2.329-2.325c-4.436-4.429-7.966-9.702-10.367-15.497-2.401-5.79-3.636-11.998-3.636-18.27 0-6.268 1.236-12.476 3.636-18.27 2.401-5.79 5.92-11.051 10.356-15.484 4.431-4.433 9.716-7.979 15.508-10.377 5.792-2.402 12-3.639 18.27-3.639s12.478 1.237 18.269 3.639c5.792 2.398 11.054 5.918 15.485 10.355l2.572 2.573c13.408 13.111 30.438 21.909 48.892 25.254 18.145 3.29 36.85 1.165 53.782-6.106 17.303-6.562 32.291-18.099 43.064-33.161 10.957-15.322 17.050-33.583 17.493-52.412l0.004-0.7v-3.49c0-12.655 5.030-24.789 13.978-33.737s21.082-13.973 33.732-13.973c12.655 0 24.789 5.026 33.737 13.973s13.973 21.082 13.973 33.737v6.711c0.073 18.308 5.5 36.19 15.607 51.456 10.078 15.219 24.375 27.166 41.139 34.385 17.118 7.518 36.096 9.758 54.498 6.421 18.453-3.349 35.482-12.147 48.887-25.259l0.239-0.23 2.325-2.33c4.429-4.437 9.702-7.966 15.497-10.368 5.79-2.402 11.998-3.635 18.27-3.635 6.268 0 12.476 1.233 18.27 3.635 5.79 2.402 11.051 5.918 15.484 10.355 4.433 4.433 7.979 9.715 10.377 15.509 2.402 5.79 3.639 11.998 3.639 18.27 0 6.268-1.237 12.476-3.639 18.27-2.398 5.79-5.918 11.051-10.355 15.484l-2.573 2.573c-13.111 13.406-21.909 30.434-25.254 48.892-3.337 18.398-1.101 37.376 6.417 54.498 7.219 16.764 19.17 31.057 34.389 41.139 15.262 10.108 33.148 15.531 51.452 15.603h3.61c12.655 0 24.789 5.026 33.737 13.973s13.973 21.082 13.973 33.737c0 12.655-5.026 24.789-13.973 33.737s-21.082 13.973-33.737 13.973h-6.711c-18.308 0.073-36.19 5.495-51.456 15.603-15.262 10.108-27.234 24.459-34.445 41.285-1.203 2.798-1.963 5.758-2.266 8.776-5.623 15.545-7.057 32.34-4.096 48.681 3.349 18.454 12.147 35.483 25.259 48.891l0.23 0.235 2.33 2.326c4.437 4.431 7.966 9.705 10.368 15.496s3.635 12 3.635 18.27c0 6.27-1.233 12.478-3.635 18.27s-5.918 11.053-10.355 15.484c-4.433 4.436-9.715 7.979-15.509 10.38-5.79 2.401-11.998 3.636-18.27 3.636-6.268 0-12.476-1.236-18.27-3.636-5.79-2.401-11.051-5.92-15.484-10.356l-2.573-2.572c-13.406-13.115-30.434-21.911-48.892-25.257-18.402-3.337-37.38-1.1-54.498 6.421-16.764 7.218-31.061 19.167-41.139 34.385-10.108 15.263-15.531 33.148-15.603 51.454v3.61c0 12.653-5.026 24.788-13.973 33.736s-21.082 13.974-33.737 13.974zM436.019 873.073c20.147 20.149 47.475 31.469 75.972 31.469s55.825-11.32 75.972-31.469c20.151-20.149 31.471-47.478 31.471-75.974v-3.423c0.034-6.639 2.010-13.123 5.675-18.659 3.674-5.55 8.892-9.904 15.010-12.527l0.294-0.126c6.242-2.754 13.163-3.577 19.874-2.36 6.665 1.208 12.817 4.373 17.677 9.089l2.18 2.18c0.004 0.004-0.004-0.004 0 0 9.975 9.984 21.833 17.917 34.871 23.322 13.043 5.407 27.025 8.19 41.143 8.19 14.123 0 28.1-2.783 41.143-8.19 13.047-5.407 24.896-13.332 34.871-23.322 9.98-9.973 17.899-21.815 23.3-34.848 5.406-13.043 8.188-27.024 8.188-41.144s-2.782-28.101-8.188-41.144c-5.406-13.039-13.325-24.884-23.309-34.86-0.004-0.004 0.004 0.004 0 0l-2.193-2.193c-4.715-4.86-7.881-11.014-9.088-17.679-1.216-6.711-0.397-13.632 2.359-19.872 1.045-2.377 1.779-4.874 2.18-7.427 2.611-4.384 6.187-8.143 10.47-10.982 5.538-3.667 12.023-5.638 18.667-5.674h6.519c28.497 0 55.825-11.32 75.972-31.47 20.151-20.147 31.471-47.475 31.471-75.972s-11.319-55.825-31.471-75.972c-20.147-20.151-47.475-31.471-75.972-31.471h-3.422c-6.639-0.034-13.124-2.010-18.658-5.675-5.551-3.674-9.907-8.892-12.527-15.010l-0.128-0.294c-2.752-6.242-3.575-13.163-2.359-19.874 1.207-6.665 4.373-12.817 9.088-17.677l2.18-2.18c0.004-0.004-0.004 0.004 0 0 9.984-9.975 17.916-21.833 23.322-34.871 5.406-13.043 8.192-27.025 8.192-41.143 0-14.123-2.786-28.1-8.192-41.143-5.406-13.039-13.325-24.887-23.309-34.863-9.975-9.984-21.82-17.903-34.859-23.309-13.043-5.406-27.025-8.188-41.143-8.188-14.123 0-28.1 2.782-41.148 8.188-13.043 5.406-24.892 13.333-34.871 23.322l-2.176 2.18c-4.86 4.715-11.017 7.881-17.681 9.088-6.711 1.216-13.632 0.397-19.874-2.359l-0.29-0.128c-6.118-2.62-11.337-6.976-15.014-12.523-3.665-5.538-5.636-12.023-5.675-18.662v-6.524c0-28.497-11.319-55.825-31.467-75.972-20.151-20.151-47.479-31.471-75.977-31.471-28.493 0-55.821 11.319-75.972 31.471-20.149 20.147-31.469 47.475-31.469 75.972v3.085c-0.216 6.746-2.426 13.274-6.353 18.765-3.985 5.572-9.553 9.813-15.981 12.177-0.591 0.218-1.174 0.457-1.75 0.708-6.24 2.756-13.161 3.575-19.872 2.359-6.666-1.207-12.82-4.373-17.68-9.088l-2.18-2.18c-9.978-9.993-21.828-17.916-34.871-23.322s-27.025-8.192-41.144-8.192c-14.12 0-28.101 2.786-41.144 8.192-13.033 5.402-24.874 13.321-34.848 23.296-9.99 9.98-17.914 21.828-23.321 34.871s-8.19 27.025-8.19 41.143c0 14.123 2.783 28.105 8.19 41.148 5.405 13.035 13.326 24.883 23.31 34.859l2.192 2.193c4.716 4.86 7.88 11.012 9.089 17.677 1.217 6.711 0.396 13.632-2.358 19.874l-0.13 0.29c-2.622 6.118-6.975 11.337-12.525 15.014-5.536 3.665-12.020 5.636-18.659 5.675h-6.526c-28.496 0-55.824 11.319-75.974 31.467-20.149 20.151-31.469 47.479-31.469 75.977 0 28.493 11.32 55.821 31.469 75.972 20.149 20.149 47.478 31.469 75.974 31.469h3.087c6.743 0.216 13.273 2.426 18.764 6.353 5.571 3.985 9.814 9.553 12.178 15.981 0.217 0.591 0.453 1.174 0.707 1.75 2.754 6.24 3.575 13.161 2.358 19.872-1.208 6.665-4.372 12.819-9.088 17.679l-2.181 2.181c-9.99 9.978-17.914 21.828-23.322 34.871s-8.19 27.024-8.19 41.144c0 14.12 2.783 28.101 8.19 41.144 5.405 13.038 13.326 24.884 23.31 34.86 9.976 9.984 21.821 17.905 34.86 23.31 13.043 5.407 27.024 8.19 41.144 8.19s28.101-2.783 41.144-8.19c13.044-5.407 24.893-13.332 34.871-23.321l2.181-2.181c4.86-4.716 11.014-7.88 17.679-9.088 6.711-1.217 13.632-0.396 19.872 2.358 2.377 1.049 4.874 1.781 7.427 2.182 4.384 2.613 8.143 6.186 10.982 10.473 3.667 5.537 5.638 12.023 5.674 18.663v6.522c0 28.496 11.32 55.824 31.47 75.974zM511.991 546.142c-54.199 0-98.133-43.934-98.133-98.133s43.934-98.133 98.133-98.133c54.199 0 98.133 43.934 98.133 98.133s-43.934 98.133-98.133 98.133zM354.125 448.009c0 87.187 70.679 157.867 157.867 157.867s157.867-70.679 157.867-157.867c0-87.189-70.677-157.867-157.867-157.867-87.187 0-157.867 70.677-157.867 157.867z" />
<glyph unicode="&#xe921;" glyph-name="briefcase" d="M507.268 861.874c1.553 0 3.127-0.001 4.723-0.001 1.6 0 3.174 0 4.723 0.001 35.119 0.010 58.658 0.017 78.801-5.38 54.481-14.598 97.033-57.15 111.629-111.629 3.998-14.916 5.030-31.695 5.295-53.659h90.91c22.852 0 41.801 0.001 57.254-1.262 16.077-1.313 30.98-4.141 45.022-11.294 21.675-11.045 39.3-28.668 50.342-50.344 7.155-14.039 9.98-28.945 11.294-45.021 1.263-15.453 1.263-34.401 1.263-57.257v-326.711c0-22.857 0-41.805-1.263-57.254-1.314-16.077-4.139-30.985-11.294-45.022-11.042-21.679-28.668-39.3-50.342-50.347-14.042-7.151-28.945-9.98-45.022-11.294-15.454-1.263-34.402-1.263-57.254-1.259h-582.714c-22.855-0.004-41.803-0.004-57.256 1.259-16.077 1.314-30.982 4.143-45.021 11.294-21.676 11.046-39.299 28.668-50.344 50.347-7.153 14.037-9.981 28.945-11.294 45.022-1.263 15.45-1.262 34.398-1.262 57.25v326.72c0 22.852-0.001 41.8 1.262 57.252 1.313 16.076 4.141 30.982 11.294 45.021 11.045 21.676 28.668 39.299 50.344 50.344 14.039 7.153 28.944 9.981 45.021 11.294 15.453 1.263 34.4 1.262 57.254 1.262h90.911c0.263 21.964 1.297 38.743 5.293 53.659 14.598 54.479 57.15 97.031 111.63 111.629 20.143 5.397 43.682 5.39 78.801 5.38zM221.859 631.473c-24.389 0-40.884-0.023-53.615-1.063-12.382-1.012-18.552-2.834-22.767-4.982-10.437-5.318-18.922-13.803-24.24-24.24-2.148-4.215-3.971-10.384-4.982-22.767-1.040-12.731-1.063-29.226-1.063-53.613v-324.267c0-24.388 0.023-40.887 1.063-53.615 1.012-12.386 2.834-18.556 4.982-22.767 5.318-10.436 13.803-18.923 24.24-24.243 4.215-2.146 10.384-3.968 22.767-4.979 12.731-1.041 29.226-1.062 53.615-1.062h580.266c24.388 0 40.883 0.021 53.615 1.062 12.382 1.011 18.551 2.833 22.767 4.979 10.436 5.321 18.923 13.807 24.239 24.243 2.146 4.211 3.972 10.381 4.983 22.767 1.041 12.727 1.062 29.227 1.062 53.615v324.267c0 24.387-0.021 40.881-1.062 53.613-1.011 12.382-2.837 18.552-4.983 22.767-5.316 10.437-13.803 18.922-24.239 24.24-4.215 2.148-10.385 3.971-22.767 4.982-12.732 1.040-29.227 1.063-53.615 1.063h-580.266zM652.668 691.206c-0.26 20.058-1.020 29.996-3.221 38.199-9.071 33.865-35.524 60.317-69.389 69.391-11.524 3.087-26.466 3.344-68.066 3.344s-56.542-0.256-68.066-3.344c-33.864-9.074-60.316-35.526-69.39-69.391-2.198-8.204-2.961-18.141-3.219-38.199h281.351z" />
<glyph unicode="&#xe922;" glyph-name="user" d="M511.991 802.142c-89.542 0-162.132-72.59-162.132-162.133s72.59-162.133 162.132-162.133c89.545 0 162.133 72.589 162.133 162.133s-72.589 162.133-162.133 162.133zM290.127 640.009c0 122.534 99.333 221.867 221.865 221.867 122.534 0 221.867-99.333 221.867-221.867s-99.332-221.867-221.867-221.867c-122.532 0-221.865 99.332-221.865 221.867zM399.52 328.542c-53.971 0.013-87.881 0.017-116.405-8.636-64.091-19.439-114.245-69.594-133.687-133.687-8.653-28.523-8.646-62.434-8.636-116.403 0-1.911 0.001-3.844 0.001-5.807 0-16.495 13.372-29.867 29.867-29.867s29.867 13.372 29.867 29.867c0 61.717 0.324 85.956 6.063 104.87 13.65 45.001 48.865 80.218 93.865 93.867 18.918 5.739 43.155 6.063 104.872 6.063h213.332c61.717 0 85.956-0.324 104.875-6.063 45.001-13.649 80.213-48.866 93.862-93.867 5.739-18.914 6.063-43.153 6.063-104.87 0-16.495 13.372-29.867 29.867-29.867s29.867 13.372 29.867 29.867c0 1.963 0.004 3.895 0.004 5.807 0.009 53.969 0.017 87.881-8.636 116.403-19.443 64.094-69.598 114.249-133.687 133.687-28.527 8.653-62.434 8.649-116.407 8.636-1.907 0-3.844 0-5.807 0h-213.332c-1.961 0-3.896 0-5.807 0z" />
<glyph unicode="&#xe923;" glyph-name="log-in" d="M772.83 800.497c19.499-1.593 30.933-4.579 39.714-9.051 18.466-9.408 33.476-24.421 42.884-42.886 4.471-8.778 7.458-20.216 9.054-39.713 1.621-19.846 1.643-45.302 1.643-81.638v-358.4c0-36.335-0.021-61.794-1.643-81.638-1.596-19.499-4.582-30.933-9.054-39.714-9.408-18.466-24.418-33.476-42.884-42.884-8.781-4.471-20.215-7.458-39.714-9.054-19.844-1.621-45.303-1.643-81.638-1.643h-51.2c-16.495 0-29.867-13.372-29.867-29.867s13.372-29.867 29.867-29.867h52.484c34.752 0 62.652 0 85.218 1.843 23.189 1.894 43.366 5.884 61.969 15.364 29.705 15.134 53.854 39.283 68.988 68.988 9.481 18.603 13.47 38.78 15.364 61.969 1.843 22.566 1.843 50.466 1.843 85.218v360.978c0 34.748 0 62.645-1.843 85.208-1.894 23.191-5.884 43.365-15.364 61.968-15.134 29.705-39.283 53.855-68.988 68.99-18.603 9.478-38.78 13.469-61.969 15.363-22.566 1.844-50.462 1.843-85.214 1.843h-52.489c-16.495 0-29.867-13.372-29.867-29.867s13.372-29.867 29.867-29.867h51.2c36.335 0 61.794-0.023 81.638-1.645zM405.539 682.461c-11.664-11.664-11.664-30.574 0-42.238l162.35-162.348h-439.898c-16.495 0-29.867-13.372-29.867-29.867s13.372-29.867 29.867-29.867h439.898l-162.35-162.347c-11.664-11.665-11.664-30.575 0-42.24 11.664-11.661 30.574-11.661 42.239 0l213.333 213.333c11.661 11.665 11.661 30.575 0 42.24l-213.333 213.332c-11.665 11.664-30.575 11.664-42.239 0z" />
<glyph unicode="&#xe924;" glyph-name="log-out" d="M331.504 861.875c-34.751 0-62.65 0-85.214-1.843-23.191-1.895-43.365-5.885-61.968-15.363-29.705-15.135-53.855-39.286-68.99-68.99-9.478-18.602-13.469-38.776-15.363-61.968-1.844-22.564-1.843-50.463-1.843-85.214v-360.976c0-34.752 0-62.647 1.843-85.214 1.895-23.189 5.885-43.366 15.363-61.969 15.135-29.705 39.286-53.854 68.99-68.988 18.603-9.481 38.776-13.47 61.968-15.364 22.565-1.843 50.464-1.843 85.216-1.843h52.486c16.495 0 29.867 13.372 29.867 29.867s-13.372 29.867-29.867 29.867h-51.2c-36.336 0-61.792 0.021-81.638 1.643-19.497 1.596-30.935 4.582-39.713 9.054-18.465 9.408-33.478 24.418-42.886 42.884-4.473 8.781-7.458 20.215-9.051 39.714-1.621 19.844-1.645 45.303-1.645 81.638v358.4c0 36.336 0.023 61.792 1.645 81.638 1.593 19.497 4.579 30.935 9.051 39.713 9.408 18.465 24.421 33.478 42.886 42.886 8.778 4.473 20.216 7.458 39.713 9.051 19.846 1.621 45.302 1.645 81.638 1.645h51.2c16.495 0 29.867 13.372 29.867 29.867s-13.372 29.867-29.867 29.867h-52.488zM661.538 682.461c-11.661-11.664-11.661-30.574 0-42.238l162.351-162.348h-439.897c-16.495 0-29.867-13.372-29.867-29.867s13.372-29.867 29.867-29.867h439.897l-162.351-162.347c-11.661-11.665-11.661-30.575 0-42.24 11.665-11.661 30.575-11.661 42.24 0l213.333 213.333c11.661 11.665 11.661 30.575 0 42.24l-213.333 213.332c-11.665 11.664-30.575 11.664-42.24 0z" />
<glyph unicode="&#xe925;" glyph-name="menu-dots" d="M511.991 759.475c-7.070 0-12.8-5.731-12.8-12.8s5.73-12.8 12.8-12.8c7.070 0 12.8 5.731 12.8 12.8s-5.73 12.8-12.8 12.8zM439.458 746.675c0 40.059 32.474 72.533 72.533 72.533s72.533-32.474 72.533-72.533c0-40.059-32.474-72.533-72.533-72.533s-72.533 32.474-72.533 72.533zM511.991 460.809c-7.070 0-12.8-5.73-12.8-12.8s5.73-12.8 12.8-12.8c7.070 0 12.8 5.73 12.8 12.8s-5.73 12.8-12.8 12.8zM439.458 448.009c0 40.060 32.474 72.533 72.533 72.533s72.533-32.474 72.533-72.533c0-40.060-32.474-72.533-72.533-72.533s-72.533 32.474-72.533 72.533zM511.991 162.142c-7.070 0-12.8-5.73-12.8-12.8s5.73-12.8 12.8-12.8c7.070 0 12.8 5.73 12.8 12.8s-5.73 12.8-12.8 12.8zM439.458 149.342c0 40.060 32.474 72.533 72.533 72.533s72.533-32.474 72.533-72.533c0-40.060-32.474-72.533-72.533-72.533s-72.533 32.474-72.533 72.533z" />
<glyph unicode="&#xe926;" glyph-name="alert-circle" d="M511.991 844.809c-219.146 0-396.8-177.654-396.8-396.8 0-219.149 177.654-396.8 396.8-396.8 219.149 0 396.8 177.651 396.8 396.8 0 219.146-177.651 396.8-396.8 396.8zM55.458 448.009c0 252.136 204.397 456.533 456.533 456.533 252.139 0 456.533-204.397 456.533-456.533 0-252.139-204.395-456.533-456.533-456.533-252.136 0-456.533 204.395-456.533 456.533zM511.991 648.542c-16.495 0-29.867-13.372-29.867-29.867v-170.667c0-16.495 13.372-29.867 29.867-29.867s29.867 13.372 29.867 29.867v170.667c0 16.495-13.372 29.867-29.867 29.867zM482.125 277.342c0-16.495 13.372-29.867 29.867-29.867h0.427c16.495 0 29.867 13.372 29.867 29.867s-13.372 29.867-29.867 29.867h-0.427c-16.495 0-29.867-13.372-29.867-29.867z" />
<glyph unicode="&#xe927;" glyph-name="notification" d="M309.864 820.813c53.61 53.61 126.322 83.729 202.136 83.729 75.819 0 148.531-30.118 202.142-83.729s83.725-126.321 83.725-202.138c0-126.545 31.842-211.307 65.907-266.052l0.363-0.58c15.364-24.695 27.328-43.917 35.341-57.826 4.015-6.963 7.475-13.342 9.963-18.816 1.242-2.735 2.522-5.85 3.49-9.105 0.828-2.773 2.206-8.119 1.69-14.46-0.431-5.252-1.434-13.039-5.824-20.941s-10.47-12.868-14.703-16.009c-8.017-5.948-17.553-7.403-21.474-7.983-5.598-0.832-12.19-1.271-19.251-1.549-14.050-0.546-33.647-0.546-58.522-0.546h-565.689c-24.873 0-44.471 0-58.522 0.546-7.060 0.277-13.651 0.717-19.249 1.549-3.92 0.58-13.456 2.035-21.475 7.983-4.233 3.14-10.314 8.107-14.703 16.009s-5.394 15.689-5.823 20.941c-0.519 6.34 0.862 11.686 1.688 14.46 0.969 3.255 2.249 6.37 3.49 9.105 2.486 5.474 5.948 11.853 9.962 18.816 8.016 13.909 19.977 33.131 35.343 57.826l0.361 0.58c34.065 54.746 65.906 139.507 65.906 266.052 0 75.817 30.118 148.528 83.729 202.138zM512 844.809c-59.972 0-117.49-23.825-159.898-66.233s-66.233-99.926-66.233-159.9c0-137.148-34.679-232.934-74.923-297.609-15.586-25.050-26.909-43.255-34.362-56.145 12.533-0.375 29.89-0.38 53.342-0.38h564.151c23.454 0 40.806 0.004 53.342 0.38-7.454 12.89-18.778 31.095-34.364 56.145-40.243 64.674-74.923 160.461-74.923 297.609 0 59.974-23.821 117.492-66.231 159.9-42.406 42.408-99.925 66.233-159.902 66.233zM864.845 266.155c0.452 0.085 0.649 0.145 0.636 0.154-0.013 0.004-0.239-0.038-0.636-0.154zM158.522 266.308c-0.015-0.009 0.181-0.068 0.637-0.154-0.393 0.115-0.621 0.158-0.637 0.154zM376.721 83.772c-10.915-12.365-9.739-31.241 2.628-42.155 35.333-31.185 81.813-50.142 132.651-50.142s97.323 18.957 132.655 50.142c12.365 10.914 13.542 29.79 2.628 42.155-10.914 12.369-29.79 13.542-42.155 2.628-24.841-21.922-57.399-35.191-93.129-35.191s-68.284 13.269-93.123 35.191c-12.367 10.914-31.241 9.741-42.156-2.628z" />
<glyph unicode="&#xe928;" glyph-name="users" d="M405.326 802.142c-89.544 0-162.133-72.59-162.133-162.133s72.59-162.133 162.133-162.133c89.543 0 162.132 72.589 162.132 162.133s-72.589 162.133-162.132 162.133zM183.459 640.009c0 122.534 99.333 221.867 221.867 221.867s221.865-99.333 221.865-221.867c0-122.534-99.332-221.867-221.865-221.867s-221.867 99.332-221.867 221.867zM655.915 825.342c-7.343-14.772-1.318-32.697 13.453-40.038 53.457-26.567 90.091-81.681 90.091-145.296s-36.634-118.729-90.091-145.297c-14.771-7.339-20.796-25.267-13.453-40.038 7.339-14.771 25.267-20.796 40.038-13.453 72.981 36.267 123.238 111.632 123.238 198.788s-50.257 162.519-123.238 198.788c-14.771 7.34-32.7 1.317-40.038-13.455zM405.326 247.475c113.082 0 217.804-59.072 296.515-159.253 10.193-12.971 28.966-15.223 41.937-5.030 12.971 10.189 15.223 28.966 5.035 41.937-87.39 111.223-208.179 182.080-343.487 182.080s-256.095-70.857-343.485-182.080c-10.191-12.971-7.938-31.748 5.033-41.937 12.97-10.193 31.746-7.94 41.937 5.030 78.711 100.181 183.432 159.253 296.515 159.253zM740.783 256.956c-6.801-15.027-0.132-32.725 14.895-39.522 59.52-26.935 113.924-71.206 159.497-129.212 10.193-12.971 28.966-15.223 41.937-5.030 12.971 10.189 15.223 28.966 5.035 41.937-50.641 64.448-112.38 115.294-181.841 146.726-15.027 6.797-32.721 0.128-39.522-14.899z" />
<glyph unicode="&#xe929;" glyph-name="user-square" d="M288.837 904.542h446.31c34.752 0 62.647 0 85.214-1.843 23.189-1.895 43.366-5.885 61.969-15.363 29.705-15.135 53.854-39.286 68.988-68.99 9.481-18.603 13.47-38.776 15.364-61.968 1.843-22.565 1.843-50.464 1.843-85.216v-446.304c0-34.752 0-62.652-1.843-85.218-1.894-23.189-5.884-43.366-15.364-61.969-15.134-29.705-39.283-53.854-68.988-68.988-6.524-3.324-13.274-5.995-20.343-8.137-30.007-9.088-68.685-9.084-122.594-9.071-1.83 0-3.674 0-5.534 0h-443.733c-1.862 0-3.705 0-5.531 0-53.912-0.013-92.59-0.017-122.595 9.071-7.070 2.142-13.821 4.813-20.344 8.137-29.705 15.134-53.855 39.283-68.99 68.988-9.478 18.603-13.469 38.78-15.363 61.969-1.844 22.566-1.843 50.462-1.843 85.214v446.31c0 34.751 0 62.65 1.843 85.214 1.895 23.191 5.885 43.365 15.363 61.968 15.135 29.705 39.286 53.855 68.99 68.99 18.603 9.478 38.776 13.469 61.968 15.363 22.565 1.844 50.463 1.843 85.214 1.843zM208.487 843.164c-19.497-1.593-30.935-4.579-39.713-9.051-18.465-9.408-33.478-24.421-42.886-42.886-4.473-8.778-7.458-20.216-9.051-39.713-1.621-19.846-1.645-45.302-1.645-81.638v-443.733c0-36.335 0.023-61.794 1.645-81.638 1.593-19.499 4.579-30.933 9.051-39.714 4.258-8.358 9.664-16.004 16.019-22.75 0.569 7.616 1.431 14.519 2.738 21.090 15.824 79.552 78.008 141.734 157.558 157.559 19.412 3.861 41.969 3.857 77.92 3.853 1.273 0 2.562 0 3.869 0h256c1.306 0 2.598 0 3.87 0 35.951 0.004 58.509 0.009 77.918-3.853 79.552-15.825 141.734-78.007 157.559-157.559 1.306-6.571 2.167-13.474 2.739-21.090 6.353 6.746 11.759 14.391 16.017 22.75 4.471 8.781 7.458 20.215 9.054 39.714 1.621 19.844 1.643 45.303 1.643 81.638v443.733c0 36.336-0.021 61.792-1.643 81.638-1.596 19.497-4.582 30.935-9.054 39.713-9.408 18.465-24.418 33.478-42.884 42.886-8.781 4.473-20.215 7.458-39.714 9.051-19.844 1.621-45.303 1.645-81.638 1.645h-443.733c-36.336 0-61.792-0.023-81.638-1.645zM823.343 53.589c-0.222 18.884-0.862 29.21-2.59 37.888-11.11 55.855-54.771 99.516-110.626 110.626-12.873 2.56-29.052 2.705-70.135 2.705h-256c-41.082 0-57.261-0.145-70.135-2.705-55.854-11.11-99.516-54.771-110.626-110.626-1.726-8.678-2.367-19.004-2.592-37.888 19.431-2.223 46.589-2.381 89.487-2.381h443.733c42.897 0 70.054 0.158 89.485 2.381zM511.991 695.475c-77.76 0-140.8-63.038-140.8-140.8 0-77.76 63.040-140.8 140.8-140.8s140.8 63.040 140.8 140.8c0 77.762-63.040 140.8-140.8 140.8zM311.459 554.675c0 110.751 89.782 200.533 200.533 200.533s200.533-89.782 200.533-200.533c0-110.75-89.783-200.533-200.533-200.533s-200.533 89.783-200.533 200.533z" />
<glyph unicode="&#xe92a;" glyph-name="settings-02" d="M767.991 716.809c-54.199 0-98.133-43.936-98.133-98.134s43.934-98.133 98.133-98.133c54.199 0 98.133 43.936 98.133 98.133s-43.934 98.133-98.133 98.133zM612.945 648.541c13.961 72.907 78.071 128 155.046 128 87.189 0 157.867-70.679 157.867-157.867s-70.677-157.867-157.867-157.867c-76.975 0-141.086 55.091-155.046 128h-484.954c-16.495 0-29.867 13.372-29.867 29.867s13.372 29.867 29.867 29.867h484.954zM255.991 375.475c-54.197 0-98.133-43.934-98.133-98.133s43.936-98.133 98.133-98.133c54.198 0 98.133 43.934 98.133 98.133s-43.936 98.133-98.133 98.133zM98.125 277.342c0 87.185 70.679 157.867 157.867 157.867 76.977 0 141.085-55.095 155.046-128h484.954c16.495 0 29.867-13.372 29.867-29.867s-13.372-29.867-29.867-29.867h-484.954c-13.961-72.909-78.069-128-155.046-128-87.187 0-157.867 70.677-157.867 157.867z" />
<glyph unicode="&#xe92b;" glyph-name="mail-02" horiz-adv-x="1067" d="M305.902 819.209h446.307c34.752 0 62.652 0 85.218-1.843 23.189-1.895 43.362-5.885 61.965-15.363 29.705-15.135 53.858-39.286 68.992-68.99 9.365-18.38 13.372-38.293 15.296-61.135 2.146-5.684 2.458-11.799 1.079-17.527 0.832-19.27 0.832-41.882 0.832-68.521v-275.637c0-34.752 0-62.652-1.843-85.218-1.894-23.189-5.888-43.366-15.364-61.969-15.134-29.705-39.287-53.854-68.992-68.988-18.603-9.481-38.775-13.47-61.965-15.364-22.566-1.843-50.466-1.843-85.218-1.843h-446.305c-34.752 0-62.651 0-85.216 1.843-23.191 1.894-43.365 5.884-61.968 15.364-29.705 15.134-53.855 39.283-68.99 68.988-9.478 18.603-13.469 38.78-15.363 61.969-1.843 22.566-1.843 50.462-1.843 85.214v275.643c0 26.638 0 49.25 0.83 68.519-1.378 5.729-1.065 11.844 1.082 17.529 1.923 22.842 5.93 42.755 15.294 61.135 15.135 29.705 39.286 53.855 68.99 68.99 18.603 9.478 38.777 13.469 61.968 15.363 22.565 1.844 50.464 1.843 85.214 1.843zM132.27 603.969c-0.012-6.112-0.013-12.576-0.013-19.427v-273.066c0-36.335 0.023-61.794 1.644-81.638 1.593-19.499 4.579-30.933 9.051-39.714 9.408-18.466 24.421-33.476 42.886-42.884 8.778-4.471 20.216-7.458 39.714-9.054 19.846-1.621 45.302-1.643 81.638-1.643h443.735c36.335 0 61.79 0.021 81.638 1.643 19.494 1.596 30.933 4.582 39.71 9.054 18.466 9.408 33.481 24.418 42.889 42.884 4.471 8.781 7.458 20.215 9.050 39.714 1.621 19.844 1.647 45.303 1.647 81.638v273.066c0 6.851-0.004 13.315-0.013 19.427l-301.363-210.953c-1.399-0.981-2.778-1.946-4.139-2.901-24.124-16.913-42.59-29.862-63.424-35.055-18.295-4.561-37.431-4.561-55.727 0-20.834 5.193-39.3 18.142-63.424 35.055-1.357 0.956-2.739 1.92-4.134 2.901l-301.364 210.953zM923.319 675.116c-1.715 14.228-4.416 23.434-8.158 30.778-9.408 18.465-24.422 33.478-42.889 42.886-8.777 4.473-20.215 7.458-39.71 9.051-19.849 1.621-45.303 1.645-81.638 1.645h-443.735c-36.336 0-61.792-0.023-81.638-1.645-19.497-1.593-30.935-4.579-39.714-9.051-18.465-9.408-33.478-24.421-42.886-42.886-3.742-7.344-6.443-16.549-8.158-30.778l333.093-233.166c30.234-21.163 39.078-26.769 47.753-28.932 8.811-2.197 18.022-2.197 26.833 0 8.674 2.163 17.519 7.77 47.753 28.932l333.094 233.166z" />
<glyph unicode="&#xe92c;" glyph-name="clock-fast-forward" d="M511.991 802.142c195.584 0 354.133-158.551 354.133-354.133 0-1.553-0.009-3.106-0.030-4.655l-47.121 47.108c-11.665 11.665-30.579 11.661-42.24-0.004s-11.661-30.575 0.009-42.24l85.355-85.333c5.602-5.598 13.201-8.742 21.124-8.742 7.919 0 15.514 3.149 21.116 8.751l85.308 85.333c11.661 11.665 11.661 30.575-0.004 42.236-11.665 11.665-30.579 11.661-42.24-0.004l-22.037-22.042c-10.637 219.092-191.642 393.459-413.372 393.459-228.572 0-413.867-185.295-413.867-413.867 0-228.574 185.295-413.867 413.867-413.867 130.027 0 246.059 59.994 321.886 153.698 10.377 12.826 8.393 31.629-4.433 42.005-12.821 10.377-31.629 8.393-42.005-4.429-64.969-80.29-164.211-131.541-275.447-131.541-195.582 0-354.133 158.549-354.133 354.133 0 195.582 158.551 354.133 354.133 354.133zM511.991 691.209c-16.495 0-29.867-13.372-29.867-29.867v-213.333c0-9.988 4.992-19.311 13.299-24.849l128-85.333c13.726-9.152 32.269-5.444 41.417 8.282 9.152 13.726 5.444 32.269-8.282 41.417l-114.701 76.467v197.35c0 16.495-13.372 29.867-29.867 29.867z" />
<glyph unicode="&#xe92d;" glyph-name="edit-01" horiz-adv-x="1067" d="M802.33 874.451c47.010 47.010 123.23 47.010 170.24 0s47.010-123.228 0-170.238l-408.013-408.008c-0.708-0.713-1.412-1.417-2.103-2.108-12.706-12.723-22.468-22.494-34.159-29.658-10.304-6.315-21.542-10.97-33.297-13.79-13.333-3.2-27.145-3.196-45.124-3.187-0.977 0.004-1.971 0.004-2.978 0.004h-71.446c-16.495 0-29.867 13.372-29.867 29.867v71.445c0 1.007 0 1.997-0.001 2.978-0.009 17.98-0.017 31.791 3.184 45.12 2.822 11.755 7.477 22.993 13.793 33.301 7.163 11.691 16.935 21.449 29.655 34.159 0.693 0.691 1.396 1.391 2.107 2.103l408.010 408.011zM930.33 832.213c-23.68 23.683-62.080 23.683-85.76 0l-408.013-408.009c-15.763-15.765-20.067-20.343-23.068-25.237-3.041-4.962-5.282-10.372-6.641-16.034-1.341-5.585-1.533-11.861-1.533-34.155v-41.579h41.58c22.293 0 28.574 0.192 34.159 1.532 5.658 1.357 11.068 3.601 16.030 6.639 4.898 3.004 9.472 7.305 25.237 23.070l408.009 408.010c23.684 23.683 23.684 62.080 0 85.762zM322.962 819.199c-34.751 0-62.65 0-85.215-1.843-23.191-1.895-43.365-5.885-61.968-15.363-29.704-15.135-53.855-39.286-68.99-68.99-9.479-18.602-13.469-38.776-15.363-61.968-1.844-22.564-1.844-50.463-1.843-85.214v-360.975c0-34.752 0-62.652 1.843-85.214 1.895-23.194 5.885-43.366 15.363-61.969 15.135-29.705 39.286-53.854 68.99-68.992 18.603-9.476 38.777-13.466 61.968-15.36 22.565-1.843 50.464-1.843 85.216-1.843h360.97c34.752 0 62.652 0 85.218 1.843 23.194 1.894 43.366 5.884 61.969 15.36 29.705 15.138 53.854 39.287 68.988 68.992 9.481 18.603 13.47 38.775 15.364 61.969 1.843 22.562 1.843 50.462 1.843 85.214v180.489c0 16.495-13.372 29.867-29.867 29.867s-29.867-13.372-29.867-29.867v-179.2c0-36.339-0.021-61.794-1.643-81.638-1.596-19.499-4.578-30.938-9.054-39.714-9.408-18.466-24.418-33.476-42.884-42.884-8.781-4.476-20.215-7.458-39.714-9.054-19.844-1.621-45.303-1.643-81.638-1.643h-358.4c-36.336 0-61.792 0.021-81.638 1.643-19.497 1.596-30.935 4.578-39.714 9.054-18.465 9.408-33.478 24.418-42.886 42.884-4.473 8.777-7.458 20.215-9.051 39.714-1.622 19.844-1.645 45.299-1.645 81.638v358.399c0 36.336 0.023 61.792 1.645 81.638 1.593 19.497 4.578 30.935 9.051 39.714 9.408 18.465 24.421 33.477 42.886 42.886 8.778 4.473 20.216 7.458 39.714 9.051 19.846 1.621 45.302 1.645 81.638 1.645h179.2c16.495 0 29.867 13.372 29.867 29.867s-13.372 29.867-29.867 29.867h-180.487z" />
<glyph unicode="&#xe92e;" glyph-name="edit" d="M682.876 831.784c47.010 47.010 123.23 47.010 170.24 0 47.006-47.010 47.006-123.228 0-170.238l-536.012-536.008c-0.711-0.713-1.412-1.417-2.105-2.108-12.707-12.719-22.469-22.494-34.158-29.658-10.307-6.315-21.545-10.97-33.299-13.79-13.331-3.2-27.143-3.196-45.123-3.187-0.98 0.004-1.972 0.004-2.978 0.004h-71.447c-16.495 0-29.867 13.372-29.867 29.867v71.445c0 1.007 0 1.997-0.001 2.978-0.009 17.98-0.017 31.791 3.184 45.12 2.822 11.755 7.477 22.993 13.793 33.301 7.163 11.691 16.935 21.449 29.655 34.159 0.694 0.691 1.396 1.391 2.107 2.103l536.011 536.010zM810.876 789.546c-23.684 23.683-62.080 23.683-85.76 0l-536.013-536.008c-15.764-15.765-20.068-20.339-23.069-25.237-3.041-4.962-5.282-10.372-6.641-16.034-1.341-5.585-1.533-11.861-1.533-34.155v-41.579h41.58c22.294 0 28.573 0.192 34.156 1.532 5.66 1.357 11.070 3.601 16.033 6.639 4.896 3.004 9.472 7.305 25.236 23.070l536.010 536.010c23.684 23.683 23.684 62.080 0 85.762zM482.125 106.667c0-16.495 13.372-29.867 29.867-29.867h384c16.495 0 29.867 13.372 29.867 29.867s-13.372 29.867-29.867 29.867h-384c-16.495 0-29.867-13.372-29.867-29.867z" />
<glyph unicode="&#xe92f;" glyph-name="ruble-circle" d="M511.991 844.809c-219.146 0-396.8-177.654-396.8-396.8 0-219.149 177.654-396.8 396.8-396.8 219.149 0 396.8 177.651 396.8 396.8 0 219.146-177.651 396.8-396.8 396.8zM55.458 448.009c0 252.136 204.397 456.533 456.533 456.533 252.139 0 456.533-204.397 456.533-456.533 0-252.139-204.395-456.533-456.533-456.533-252.136 0-456.533 204.395-456.533 456.533zM375.458 682.675c0 16.495 13.372 29.867 29.867 29.867h192c75.405 0 136.533-61.128 136.533-136.533s-61.129-136.533-136.533-136.533h-162.133v-78.933h119.467c16.495 0 29.867-13.372 29.867-29.867s-13.372-29.867-29.867-29.867h-119.467v-87.467c0-16.495-13.372-29.867-29.867-29.867s-29.867 13.372-29.867 29.867v87.467h-34.133c-16.495 0-29.867 13.372-29.867 29.867s13.372 29.867 29.867 29.867h34.133v78.933h-34.133c-16.495 0-29.867 13.372-29.867 29.867s13.372 29.867 29.867 29.867h34.133v183.467zM435.191 652.809v-153.6h162.133c42.415 0 76.8 34.384 76.8 76.8s-34.385 76.8-76.8 76.8h-162.133z" />
<glyph unicode="&#xe930;" glyph-name="bookmark" d="M416.837 861.875h190.31c34.752 0 62.647 0 85.214-1.843 23.189-1.895 43.366-5.885 61.969-15.363 29.705-15.135 53.854-39.286 68.988-68.99 9.481-18.603 13.47-38.776 15.364-61.968 1.843-22.564 1.843-50.463 1.843-85.214v-564.488c0-10.645-5.666-20.489-14.874-25.83-9.212-5.346-20.565-5.385-29.811-0.102l-283.849 162.202-283.849-162.202c-9.244-5.282-20.6-5.244-29.809 0.102-9.208 5.342-14.876 15.185-14.876 25.83v564.488c0 34.751 0 62.65 1.843 85.214 1.895 23.191 5.885 43.365 15.363 61.968 15.135 29.705 39.286 53.855 68.99 68.99 18.603 9.478 38.776 13.469 61.968 15.363 22.565 1.844 50.463 1.843 85.214 1.843zM336.487 800.497c-19.497-1.593-30.935-4.579-39.713-9.051-18.465-9.408-33.478-24.421-42.886-42.886-4.473-8.778-7.458-20.216-9.051-39.713-1.621-19.846-1.645-45.302-1.645-81.638v-511.735l253.982 145.135c9.182 5.244 20.454 5.244 29.636 0l253.982-145.135v511.735c0 36.336-0.021 61.792-1.643 81.638-1.596 19.497-4.582 30.935-9.054 39.713-9.408 18.465-24.418 33.478-42.884 42.886-8.781 4.473-20.215 7.458-39.714 9.051-19.844 1.621-45.303 1.645-81.638 1.645h-187.733c-36.336 0-61.792-0.023-81.638-1.645z" />
<glyph unicode="&#xe931;" glyph-name="monitor-02" d="M288.837 861.875h446.31c34.752 0 62.647 0 85.214-1.843 23.189-1.895 43.366-5.885 61.969-15.363 29.705-15.135 53.854-39.286 68.988-68.99 9.481-18.603 13.47-38.776 15.364-61.968 1.843-22.565 1.843-50.464 1.843-85.216v-190.304c0-34.752 0-62.652-1.843-85.218-1.894-23.189-5.884-43.366-15.364-61.969-15.134-29.705-39.283-53.854-68.988-68.988-18.603-9.481-38.78-13.47-61.969-15.364-22.566-1.843-50.462-1.843-85.214-1.843h-193.289v-110.933h140.8c16.495 0 29.867-13.372 29.867-29.867s-13.372-29.867-29.867-29.867h-341.333c-16.495 0-29.866 13.372-29.866 29.867s13.372 29.867 29.866 29.867h140.8v110.933h-193.288c-34.751 0-62.65 0-85.214 1.843-23.191 1.894-43.365 5.884-61.968 15.364-29.705 15.134-53.855 39.283-68.99 68.988-9.478 18.603-13.469 38.78-15.363 61.969-1.844 22.566-1.843 50.462-1.843 85.214v190.31c0 34.751 0 62.65 1.843 85.214 1.895 23.191 5.885 43.365 15.363 61.968 15.135 29.705 39.286 53.855 68.99 68.99 18.603 9.478 38.776 13.469 61.968 15.363 22.565 1.844 50.463 1.843 85.214 1.843zM733.858 264.542c36.335 0 61.794 0.021 81.638 1.643 19.499 1.596 30.933 4.582 39.714 9.054 18.466 9.408 33.476 24.418 42.884 42.884 4.471 8.781 7.458 20.215 9.054 39.714 1.621 19.844 1.643 45.303 1.643 81.638v187.733c0 36.336-0.021 61.792-1.643 81.638-1.596 19.497-4.582 30.935-9.054 39.713-9.408 18.465-24.418 33.478-42.884 42.886-8.781 4.473-20.215 7.458-39.714 9.051-19.844 1.621-45.303 1.645-81.638 1.645h-443.733c-36.336 0-61.792-0.023-81.638-1.645-19.497-1.593-30.935-4.579-39.713-9.051-18.465-9.408-33.478-24.421-42.886-42.886-4.473-8.778-7.458-20.216-9.051-39.713-1.621-19.846-1.645-45.302-1.645-81.638v-187.733c0-36.335 0.023-61.794 1.645-81.638 1.593-19.499 4.579-30.933 9.051-39.714 9.408-18.466 24.421-33.476 42.886-42.884 8.778-4.471 20.216-7.458 39.713-9.054 19.846-1.621 45.302-1.643 81.638-1.643h443.733z" />
<glyph unicode="&#xe932;" glyph-name="minus-circle" horiz-adv-x="1067" d="M529.054 844.809c-219.146 0-396.8-177.654-396.8-396.8 0-219.149 177.653-396.8 396.8-396.8 219.149 0 396.8 177.651 396.8 396.8 0 219.146-177.651 396.8-396.8 396.8zM72.521 448.009c0 252.136 204.397 456.533 456.533 456.533 252.139 0 456.533-204.397 456.533-456.533 0-252.139-204.395-456.533-456.533-456.533-252.136 0-456.533 204.395-456.533 456.533zM328.521 448.009c0-16.495 13.372-29.867 29.867-29.867h341.333c16.495 0 29.867 13.372 29.867 29.867s-13.372 29.867-29.867 29.867h-341.333c-16.495 0-29.867-13.372-29.867-29.867z" />
<glyph unicode="&#xe933;" glyph-name="image-plus" horiz-adv-x="1067" d="M844.783 904.542c-16.495 0-29.867-13.372-29.867-29.867v-98.133h-98.133c-16.495 0-29.867-13.372-29.867-29.867s13.372-29.867 29.867-29.867h98.133v-98.133c0-16.495 13.372-29.867 29.867-29.867s29.867 13.372 29.867 29.867v98.133h98.133c16.495 0 29.867 13.372 29.867 29.867s-13.372 29.867-29.867 29.867h-98.133v98.133c0 16.495-13.372 29.867-29.867 29.867zM365.629 861.875h201.821c16.495 0 29.867-13.372 29.867-29.867s-13.372-29.867-29.867-29.867h-200.533c-36.336 0-61.792-0.023-81.638-1.645-19.497-1.593-30.935-4.579-39.714-9.051-18.465-9.408-33.478-24.421-42.886-42.886-4.473-8.778-7.458-20.216-9.051-39.713-1.622-19.846-1.645-45.302-1.645-81.638v-358.4c0-36.335 0.023-61.794 1.645-81.638 1.593-19.499 4.578-30.933 9.051-39.714 9.408-18.466 24.421-33.476 42.886-42.884 2.583-1.318 5.397-2.505 8.579-3.567 3.482 9.382 9.642 16.457 13.751 20.902 6.082 6.583 14.512 14.246 23.855 22.737l362.556 329.6c7.044 6.4 13.508 12.279 19.328 16.815 6.315 4.919 13.538 9.634 22.511 12.548 13.082 4.245 27.098 4.689 40.418 1.276 9.139-2.347 16.649-6.592 23.258-11.106 6.097-4.16 12.919-9.617 20.348-15.565l120.098-96.077c0.781-0.623 1.553-1.242 2.317-1.852 13.884-11.098 24.538-19.61 32.819-30.161 10.351-13.188 17.698-28.476 21.53-44.8 3.068-13.060 3.059-26.692 3.051-44.471 0-0.977 0-1.963 0-2.965v-1.097c0-7.351 0-14.345-0.021-21.001 0.017-0.371 0.021-0.742 0.021-1.114 0-1.6 0-3.174 0-4.723 0.013-35.119 0.017-58.658-5.38-78.801-6.383-23.838-18.121-45.389-33.869-63.313-5.739-6.532-12.006-12.587-18.743-18.091-17.033-13.918-37.056-24.341-59.017-30.225-20.143-5.397-43.682-5.393-78.801-5.38-1.549 0-3.123 0-4.723 0h-20.062c-0.678 0-1.365 0-2.052 0h-371.705c-0.692 0-1.382 0-2.070 0h-29.086c-11.327 0-21.659 0-30.111 0.559-8.591 0.273-16.557 0.678-23.95 1.284-23.191 1.894-43.365 5.884-61.968 15.364-29.704 15.134-53.855 39.283-68.99 68.988-9.479 18.603-13.469 38.78-15.363 61.969-1.844 22.566-1.844 50.462-1.843 85.214v360.976c0 34.751 0 62.65 1.843 85.214 1.895 23.191 5.885 43.365 15.363 61.968 15.135 29.705 39.285 53.855 68.99 68.99 18.603 9.478 38.777 13.469 61.968 15.363 22.565 1.844 50.464 1.843 85.215 1.843zM879.893 132.164c4.983 6.481 9.182 13.606 12.446 21.248 3.298 7.71 5.517 17.673 6.694 34.47 1.199 17.079 1.216 38.882 1.216 70.003 0 22.080-0.183 28.322-1.468 33.788-1.843 7.859-5.385 15.219-10.368 21.568-3.465 4.416-8.226 8.461-25.463 22.251l-119.347 95.479c-8.427 6.741-13.466 10.743-17.459 13.474-2.991 2.039-4.198 2.505-4.412 2.573-0.051 0.017-0.047 0.013 0 0-2.351 0.606-4.826 0.525-7.134-0.226 0.047 0.017 0.047 0.021 0 0-0.213-0.081-1.387-0.619-4.241-2.846-3.819-2.974-8.593-7.287-16.576-14.545l-360.912-328.102c-2.974-2.705-5.62-5.111-7.98-7.279 12.208-0.141 26.068-0.145 42.027-0.145h369.322c31.121 0 52.924 0.017 70.003 1.216 16.798 1.178 26.765 3.396 34.47 6.694 9.621 4.113 18.432 9.702 26.159 16.486 4.774 4.194 9.139 8.849 13.022 13.892zM396.783 652.809c-30.633 0-55.467-24.833-55.467-55.467s24.833-55.467 55.467-55.467c30.634 0 55.466 24.833 55.466 55.467s-24.832 55.467-55.466 55.467zM281.583 597.342c0 63.623 51.577 115.2 115.2 115.2s115.2-51.577 115.2-115.2c0-63.623-51.575-115.2-115.2-115.2s-115.2 51.577-115.2 115.2z" />
<glyph unicode="&#xe934;" glyph-name="search" d="M490.658 802.142c183.799 0 332.8-149 332.8-332.8 0-89.792-35.563-171.281-93.367-231.147-1.604-1.071-3.132-2.317-4.548-3.733s-2.662-2.944-3.733-4.548c-59.866-57.809-141.355-93.372-231.151-93.372-183.8 0-332.8 149.001-332.8 332.8s149 332.8 332.8 332.8zM788.544 213.7c58.995 68.681 94.647 157.999 94.647 255.642 0 216.79-175.744 392.533-392.533 392.533s-392.533-175.743-392.533-392.533c0-216.789 175.743-392.533 392.533-392.533 97.647 0 186.965 35.652 255.646 94.652l128.567-128.572c11.665-11.661 30.575-11.665 42.24 0 11.661 11.665 11.665 30.575 0 42.24l-128.567 128.572z" />
<glyph unicode="&#xe935;" glyph-name="moon" d="M369.090 895.793c8.788-8.788 11.216-22.101 6.095-33.426-23.628-52.247-36.797-110.265-36.797-171.439 0-230.039 186.485-416.527 416.527-416.527 61.171 0 119.189 13.171 171.439 36.8 11.324 5.12 24.636 2.692 33.425-6.097s11.217-22.101 6.093-33.425c-74.701-165.175-240.96-280.205-434.155-280.205-263.030 0-476.258 213.227-476.258 476.258 0 193.192 115.029 359.454 280.207 434.154 11.325 5.122 24.637 2.694 33.425-6.094zM293.537 809.491c-107.848-75.304-178.345-200.32-178.345-341.757 0-230.042 186.485-416.525 416.525-416.525 141.44 0 266.453 70.498 341.76 178.342-37.922-9.715-77.653-14.882-118.562-14.882-263.031 0-476.26 213.231-476.26 476.26 0 40.909 5.164 80.64 14.883 118.562z" />
<glyph unicode="&#xe936;" glyph-name="plus-circle" d="M511.991 844.809c-219.146 0-396.8-177.654-396.8-396.8 0-219.149 177.654-396.8 396.8-396.8 219.149 0 396.8 177.651 396.8 396.8 0 219.146-177.651 396.8-396.8 396.8zM55.458 448.009c0 252.136 204.397 456.533 456.533 456.533 252.139 0 456.533-204.397 456.533-456.533 0-252.139-204.395-456.533-456.533-456.533-252.136 0-456.533 204.395-456.533 456.533zM511.991 648.542c-16.495 0-29.867-13.372-29.867-29.867v-140.8h-140.8c-16.495 0-29.867-13.372-29.867-29.867s13.372-29.867 29.867-29.867h140.8v-140.8c0-16.495 13.372-29.867 29.867-29.867s29.867 13.372 29.867 29.867v140.8h140.8c16.495 0 29.867 13.372 29.867 29.867s-13.372 29.867-29.867 29.867h-140.8v140.8c0 16.495-13.372 29.867-29.867 29.867z" />
<glyph unicode="&#xe937;" glyph-name="trash" d="M476.634 904.541h70.716c22.857 0 41.801 0.001 57.254-1.262 16.077-1.313 30.98-4.141 45.022-11.294 21.675-11.045 39.3-28.668 50.342-50.344 7.155-14.039 9.98-28.944 11.294-45.021 1.263-15.453 1.263-34.4 1.263-57.254v-5.492h183.467c16.495 0 29.867-13.372 29.867-29.867s-13.372-29.867-29.867-29.867h-55.467v-449.284c0-34.752 0-62.652-1.843-85.218-1.894-23.189-5.884-43.366-15.364-61.969-15.134-29.705-39.283-53.854-68.988-68.988-18.603-9.481-38.78-13.47-61.969-15.364-22.566-1.843-50.466-1.843-85.218-1.843h-190.304c-34.752 0-62.651 0-85.216 1.843-23.191 1.894-43.366 5.884-61.968 15.364-29.705 15.134-53.855 39.283-68.99 68.988-9.478 18.603-13.469 38.78-15.363 61.969-1.844 22.566-1.843 50.462-1.843 85.214v449.288h-55.467c-16.495 0-29.867 13.372-29.867 29.867s13.372 29.867 29.867 29.867h183.467v5.492c0 22.854 0 41.801 1.262 57.254 1.313 16.077 4.141 30.982 11.294 45.021 11.045 21.676 28.668 39.299 50.344 50.344 14.039 7.153 28.944 9.981 45.021 11.294 15.453 1.263 34.402 1.262 57.254 1.262zM243.191 674.141v-448c0-36.335 0.023-61.794 1.645-81.638 1.593-19.499 4.579-30.933 9.051-39.714 9.408-18.466 24.421-33.476 42.886-42.884 8.778-4.471 20.216-7.458 39.713-9.054 19.846-1.621 45.302-1.643 81.638-1.643h187.733c36.335 0 61.794 0.021 81.638 1.643 19.499 1.596 30.933 4.582 39.714 9.054 18.466 9.408 33.476 24.418 42.884 42.884 4.471 8.781 7.458 20.215 9.054 39.714 1.621 19.844 1.643 45.303 1.643 81.638v448h-537.6zM652.791 733.875v4.267c0 24.389-0.021 40.884-1.062 53.615-1.011 12.382-2.837 18.552-4.983 22.767-5.316 10.437-13.803 18.922-24.239 24.24-4.215 2.148-10.385 3.971-22.767 4.982-12.732 1.040-29.227 1.063-53.615 1.063h-68.267c-24.388 0-40.883-0.023-53.615-1.063-12.382-1.012-18.552-2.834-22.767-4.982-10.437-5.318-18.922-13.803-24.24-24.24-2.148-4.215-3.971-10.384-4.982-22.767-1.040-12.731-1.064-29.226-1.064-53.615v-4.267h281.6z" />
<glyph unicode="&#xe938;" glyph-name="minimize" horiz-adv-x="1067" d="M340.046 861.865c-34.751 0-62.65 0-85.215-1.843-23.191-1.895-43.365-5.885-61.967-15.363-29.705-15.136-53.855-39.286-68.99-68.99-9.478-18.603-13.469-38.777-15.363-61.968-1.844-22.565-1.844-50.464-1.843-85.215v-95.152c0-16.495 13.372-29.867 29.867-29.867s29.867 13.372 29.867 29.867v93.865c0 36.336 0.023 61.792 1.645 81.638 1.593 19.497 4.579 30.935 9.051 39.714 9.408 18.465 24.421 33.478 42.886 42.886 8.778 4.473 20.216 7.458 39.714 9.051 19.846 1.622 45.302 1.645 81.638 1.645h93.867c16.495 0 29.867 13.372 29.867 29.867s-13.372 29.867-29.867 29.867h-95.154zM618.667 831.998v-256c0-16.495 13.372-29.867 29.867-29.867h256c16.495 0 29.867 13.372 29.867 29.867s-13.372 29.867-29.867 29.867h-183.898l205.018 205.015c11.661 11.663 11.661 30.574 0 42.238-11.665 11.663-30.575 11.663-42.24 0l-205.013-205.015v183.895c0 16.495-13.372 29.867-29.867 29.867s-29.867-13.372-29.867-29.867zM874.667 268.8c0-36.339-0.021-61.794-1.643-81.638-1.596-19.499-4.582-30.938-9.054-39.714-9.408-18.466-24.418-33.481-42.884-42.889-8.781-4.471-20.215-7.458-39.714-9.050-19.844-1.621-45.303-1.643-81.638-1.643h-93.867c-16.495 0-29.867-13.376-29.867-29.867 0-16.495 13.372-29.871 29.867-29.871h95.151c34.752 0 62.652 0 85.218 1.843 23.189 1.899 43.366 5.888 61.969 15.364 29.705 15.138 53.854 39.287 68.988 68.992 9.481 18.603 13.47 38.775 15.364 61.969 1.843 22.562 1.843 50.462 1.843 85.214v95.155c0 16.495-13.372 29.867-29.867 29.867s-29.867-13.372-29.867-29.867v-93.867zM106.667 320c0-16.495 13.372-29.867 29.867-29.867h183.895l-191.063-191.066c-11.664-11.665-11.664-30.575 0-42.236 11.663-11.665 30.574-11.665 42.238 0l191.063 191.061v-183.893c0-16.495 13.372-29.871 29.867-29.871s29.867 13.376 29.867 29.871v256c0 7.919-3.147 15.518-8.748 21.116-5.601 5.602-13.198 8.751-21.119 8.751h-256c-16.495 0-29.867-13.372-29.867-29.867z" />
</font>
</defs>
</svg>
